<svg width="24" height="23" viewBox="0 0 24 23" fill="none" xmlns="http://www.w3.org/2000/svg">
<path fill-rule="evenodd" clip-rule="evenodd" d="M12.4795 3.63729C12.0645 3.35147 11.5212 3.35147 11.1061 3.63729L4.26353 8.34912C3.94432 8.56893 3.74996 8.92315 3.73559 9.3035C3.68592 10.6183 3.63327 12.9207 3.77786 14.5549C3.88694 15.7878 4.17727 17.4174 4.4131 18.6162C4.52261 19.173 5.00721 19.5772 5.58316 19.5772H8.76862C8.90433 19.5772 9.01435 19.4648 9.01435 19.3262V15.3097C9.01435 14.3393 9.78446 13.5525 10.7344 13.5525H13.1432C14.0932 13.5525 14.8633 14.3393 14.8633 15.3097V19.3262C14.8633 19.4648 14.9733 19.5772 15.109 19.5772H18.0024C18.5784 19.5772 19.063 19.173 19.1725 18.6162C19.4083 17.4174 19.6987 15.7878 19.8077 14.5549C19.9523 12.9207 19.8997 10.6183 19.85 9.3035C19.8356 8.92315 19.6413 8.56893 19.3221 8.34912L12.4795 3.63729ZM10.282 2.38835C11.1952 1.75955 12.3904 1.75955 13.3036 2.38835L20.1462 7.10018C20.845 7.58138 21.2903 8.37252 21.3233 9.24541C21.3729 10.5587 21.4302 12.9489 21.2761 14.6905C21.1593 16.0106 20.8549 17.7087 20.618 18.913C20.3662 20.1931 19.2605 21.0834 18.0024 21.0834H15.109C14.159 21.0834 13.3889 20.2967 13.3889 19.3262V15.3097C13.3889 15.1711 13.2789 15.0587 13.1432 15.0587H10.7344C10.5987 15.0587 10.4887 15.1711 10.4887 15.3097V19.3262C10.4887 20.2967 9.7186 21.0834 8.76862 21.0834H5.58316C4.3251 21.0834 3.21945 20.1931 2.96764 18.913C2.73073 17.7086 2.42629 16.0106 2.30949 14.6905C2.1554 12.9489 2.21271 10.5587 2.26233 9.24541C2.29531 8.37252 2.74065 7.58138 3.43945 7.10018L10.282 2.38835Z" fill="#0063A9"/>
</svg>
