<svg width="24" height="24" viewBox="0 0 24 24" fill="none" xmlns="http://www.w3.org/2000/svg">
<path fill-rule="evenodd" clip-rule="evenodd" d="M5.41464 3.36846C3.42825 4.13218 1.84615 6.02401 1.84615 8.53058C1.84615 10.5134 2.73995 12.4141 4.1713 14.2491C5.60292 16.0845 7.51323 17.779 9.42136 19.3406C10.1983 19.9765 10.7173 20.3991 11.1496 20.6724C11.5608 20.9323 11.7984 20.9936 12 20.9936C12.2016 20.9936 12.4392 20.9323 12.8504 20.6724C13.2827 20.3991 13.8017 19.9765 14.5786 19.3406C16.4868 17.779 18.3971 16.0845 19.8287 14.2491C21.2601 12.4141 22.1538 10.5134 22.1538 8.53058C22.1538 6.02401 20.5717 4.13218 18.5854 3.36846C16.617 2.61168 14.3013 2.97553 12.7332 4.98089C12.5586 5.20424 12.2875 5.33526 12 5.33526C11.7125 5.33526 11.4414 5.20424 11.2668 4.98089C9.69868 2.97553 7.38296 2.61168 5.41464 3.36846ZM12 3.07234C9.91184 1.07692 7.09713 0.781463 4.73921 1.68804C2.11021 2.69883 0 5.21703 0 8.53058C0 11.0605 1.141 13.3412 2.70352 15.3443C4.26577 17.3471 6.30842 19.1474 8.23663 20.7254L8.28033 20.7611C9.00206 21.3518 9.60804 21.8478 10.1474 22.1888C10.7187 22.5499 11.3076 22.7992 12 22.7992C12.6924 22.7992 13.2813 22.5499 13.8526 22.1888C14.392 21.8478 14.9979 21.3518 15.7197 20.7611L15.7634 20.7254C17.6916 19.1474 19.7342 17.3471 21.2965 15.3443C22.859 13.3412 24 11.0605 24 8.53058C24 5.21703 21.8898 2.69883 19.2608 1.68804C16.9029 0.781463 14.0882 1.07692 12 3.07234Z" fill="#0063A9"/>
</svg>
