<svg width="24" height="24" viewBox="0 0 24 24" fill="none" xmlns="http://www.w3.org/2000/svg">
<path fill-rule="evenodd" clip-rule="evenodd" d="M8.82258 14.5C8.82258 14.0752 9.1692 13.7308 9.59677 13.7308H16.2258C16.6534 13.7308 17 14.0752 17 14.5C17 14.9248 16.6534 15.2692 16.2258 15.2692H9.59677C9.1692 15.2692 8.82258 14.9248 8.82258 14.5Z" fill="#0063A9"/>
<path fill-rule="evenodd" clip-rule="evenodd" d="M13.2581 7.76923C13.2581 7.3444 13.6047 7 14.0323 7H16.0968C16.5244 7 16.871 7.3444 16.871 7.76923C16.871 8.19407 16.5244 8.53846 16.0968 8.53846H14.0323C13.6047 8.53846 13.2581 8.19407 13.2581 7.76923Z" fill="#0063A9"/>
<path fill-rule="evenodd" clip-rule="evenodd" d="M13 3.53846C11.4751 3.53846 9.42753 3.70582 7.99542 3.8447C7.40117 3.90233 6.93741 4.3731 6.89141 4.96993C6.749 6.81754 6.54839 9.81282 6.54839 12C6.54839 14.1872 6.749 17.1825 6.89141 19.0301C6.93741 19.6269 7.40117 20.0977 7.99542 20.1553C9.42753 20.2942 11.4751 20.4615 13 20.4615C14.5249 20.4615 16.5725 20.2942 18.0046 20.1553C18.5988 20.0977 19.0626 19.6269 19.1086 19.0301C19.251 17.1825 19.4516 14.1872 19.4516 12C19.4516 11.2947 19.3542 8.96516 19.321 8.15385C19.1302 5.71619 17.228 3.7745 14.8065 3.59594V6.87179C14.8065 7.58203 15.5 8.5 16.0968 8.15385C15 8 14.8828 8.15385 14.8065 6.87179V3.59594C16.3548 3.6519 13.0844 3.53846 13 3.53846ZM14.0569 2.02069C13.6911 2.00756 13.3351 2 13 2C11.3935 2 9.28091 2.17427 7.84502 2.31351C6.49709 2.44423 5.45055 3.51605 5.34754 4.85245C5.20508 6.70071 5 9.74813 5 12C5 14.2519 5.20508 17.2993 5.34754 19.1475C5.45055 20.484 6.49709 21.5558 7.84502 21.6865C9.28091 21.8257 11.3935 22 13 22C14.6065 22 16.7191 21.8257 18.155 21.6865C19.5029 21.5558 20.5495 20.484 20.6525 19.1475C20.7949 17.2993 21 14.2519 21 12C21 11.0519 20.9637 9.9656 20.9114 8.8902C20.9112 8.88689 20.911 8.88359 20.9109 8.88029C20.8996 8.64894 20.8876 8.41811 20.875 8.1893C20.6948 4.90999 18.1178 2.22743 14.7827 2.05298C14.5417 2.04037 14.3017 2.02954 14.0659 2.02102" fill="#0063A9"/>
<path fill-rule="evenodd" clip-rule="evenodd" d="M8.82258 17C8.82258 16.5752 9.1692 16.2308 9.59677 16.2308H16.2258C16.6534 16.2308 17 16.5752 17 17C17 17.4248 16.6534 17.7692 16.2258 17.7692H9.59677C9.1692 17.7692 8.82258 17.4248 8.82258 17Z" fill="#0063A9"/>
<path fill-rule="evenodd" clip-rule="evenodd" d="M8.3871 7.76923C8.3871 7.3444 8.73372 7 9.16129 7H11.2258C11.6534 7 12 7.3444 12 7.76923C12 8.19407 11.6534 8.53846 11.2258 8.53846H9.16129C8.73372 8.53846 8.3871 8.19407 8.3871 7.76923Z" fill="#0063A9"/>
<path fill-rule="evenodd" clip-rule="evenodd" d="M8.3871 10.7308C8.3871 10.3059 8.73372 9.96154 9.16129 9.96154H11.2258C11.6534 9.96154 12 10.3059 12 10.7308C12 11.1556 11.6534 11.5 11.2258 11.5H9.16129C8.73372 11.5 8.3871 11.1556 8.3871 10.7308Z" fill="#0063A9"/>
<path fill-rule="evenodd" clip-rule="evenodd" d="M13.2827 10.7308C13.2827 10.3059 13.6293 9.96154 14.0569 9.96154H16.1214C16.549 9.96154 16.8956 10.3059 16.8956 10.7308C16.8956 11.1556 16.549 11.5 16.1214 11.5H14.0569C13.6293 11.5 13.2827 11.1556 13.2827 10.7308Z" fill="#0063A9"/>
<path d="M8.5 21H4.5C3.39543 21 2.5 20.1046 2.5 19V7.32843C2.5 6.79799 2.71071 6.28929 3.08579 5.91421L4.5 4.5" stroke="#0063A9" stroke-width="1.5" stroke-linecap="round"/>
</svg>
