<svg width="22" height="23" viewBox="0 0 22 23" fill="none" xmlns="http://www.w3.org/2000/svg">
<path d="M3.26221 4.28401L5.52442 2.31363C6.35734 1.58815 7.62067 1.67525 8.34615 2.50818L10.0421 4.45527C10.5396 5.02651 10.6717 5.82983 10.3833 6.53032L10.0862 7.25188C9.79778 7.95237 9.92988 8.75569 10.4274 9.32693L13.1028 12.3985C13.6003 12.9697 14.3779 13.2108 15.1114 13.0213L15.8669 12.826C16.6003 12.6365 17.3779 12.8776 17.8754 13.4488L20.049 15.9443C20.7745 16.7772 20.6874 18.0406 19.8545 18.766L17.5923 20.7364C16.3429 21.8246 14.4479 21.694 13.3597 20.4446L2.97038 8.5166C1.88217 7.26722 2.01283 5.37222 3.26221 4.28401Z" stroke="#0063A9" stroke-width="1.5" stroke-linecap="round"/>
</svg>
