<svg width="20" height="21" viewBox="0 0 20 21" fill="none" xmlns="http://www.w3.org/2000/svg">
<path d="M7 13.5C7 14.0523 6.55228 14.5 6 14.5C5.44772 14.5 5 14.0523 5 13.5C5 12.9477 5.44772 12.5 6 12.5C6.55228 12.5 7 12.9477 7 13.5Z" fill="#CECECE"/>
<path d="M7 9.5C7 10.0523 6.55228 10.5 6 10.5C5.44772 10.5 5 10.0523 5 9.5C5 8.94771 5.44772 8.5 6 8.5C6.55228 8.5 7 8.94771 7 9.5Z" fill="#CECECE"/>
<path d="M11 13.5C11 14.0523 10.5523 14.5 10 14.5C9.44771 14.5 9 14.0523 9 13.5C9 12.9477 9.44771 12.5 10 12.5C10.5523 12.5 11 12.9477 11 13.5Z" fill="#CECECE"/>
<path d="M11 9.5C11 10.0523 10.5523 10.5 10 10.5C9.44771 10.5 9 10.0523 9 9.5C9 8.94771 9.44771 8.5 10 8.5C10.5523 8.5 11 8.94771 11 9.5Z" fill="#CECECE"/>
<path d="M15 9.5C15 10.0523 14.5523 10.5 14 10.5C13.4477 10.5 13 10.0523 13 9.5C13 8.94771 13.4477 8.5 14 8.5C14.5523 8.5 15 8.94771 15 9.5Z" fill="#CECECE"/>
<path fill-rule="evenodd" clip-rule="evenodd" d="M10 3.25C7.88333 3.25 4.99144 3.43342 3.1865 3.56548C2.59249 3.60894 2.12445 4.07311 2.07621 4.66562C1.93699 6.37574 1.75 9.04172 1.75 11C1.75 12.9583 1.93699 15.6243 2.07621 17.3344C2.12445 17.9269 2.59249 18.3911 3.1865 18.4345C4.99145 18.5666 7.88333 18.75 10 18.75C12.1167 18.75 15.0086 18.5666 16.8135 18.4345C17.4075 18.3911 17.8756 17.9269 17.9238 17.3344C18.063 15.6243 18.25 12.9583 18.25 11C18.25 9.04172 18.063 6.37574 17.9238 4.66562C17.8756 4.07312 17.4075 3.60894 16.8135 3.56548C15.0086 3.43342 12.1167 3.25 10 3.25ZM3.07704 2.06948C4.8828 1.93736 7.82315 1.75 10 1.75C12.1769 1.75 15.1172 1.93736 16.923 2.06948C18.2533 2.16682 19.3105 3.21328 19.4188 4.54391C19.5582 6.25539 19.75 8.97498 19.75 11C19.75 13.025 19.5582 15.7446 19.4188 17.4561C19.3105 18.7867 18.2533 19.8332 16.923 19.9305C15.1172 20.0626 12.1769 20.25 10 20.25C7.82315 20.25 4.8828 20.0626 3.07704 19.9305C1.7467 19.8332 0.689481 18.7867 0.581157 17.4561C0.441828 15.7446 0.25 13.025 0.25 11C0.25 8.97498 0.441828 6.25539 0.581157 4.54391C0.689481 3.21328 1.7467 2.16682 3.07704 2.06948Z" fill="#CECECE"/>
<path fill-rule="evenodd" clip-rule="evenodd" d="M7 0.75C7.41421 0.75 7.75 1.08579 7.75 1.5V4C7.75 4.41421 7.41421 4.75 7 4.75C6.58579 4.75 6.25 4.41421 6.25 4V1.5C6.25 1.08579 6.58579 0.75 7 0.75Z" fill="#CECECE"/>
<path fill-rule="evenodd" clip-rule="evenodd" d="M13 0.75C13.4142 0.75 13.75 1.08579 13.75 1.5L13.75 4C13.75 4.41421 13.4142 4.75 13 4.75C12.5858 4.75 12.25 4.41421 12.25 4L12.25 1.5C12.25 1.08579 12.5858 0.75 13 0.75Z" fill="#CECECE"/>
</svg>
