<svg width="27" height="26" viewBox="0 0 27 26" fill="none" xmlns="http://www.w3.org/2000/svg">
<path fill-rule="evenodd" clip-rule="evenodd" d="M0.204834 1.44937C0.204834 0.925046 0.638204 0.5 1.17279 0.5H2.12067C3.9106 0.5 5.42043 1.80725 5.64244 3.54925L5.89913 5.56329H24.1958C25.5766 5.56329 26.6342 6.76777 26.4294 8.10708L25.0455 17.1556C24.7849 18.8596 23.2924 20.1203 21.5356 20.1203H9.20347C7.44664 20.1203 5.95416 18.8596 5.69355 17.1556L4.08738 6.65349L4.08415 6.63041L3.72147 3.78476C3.62056 2.99294 2.93427 2.39873 2.12067 2.39873H1.17279C0.638204 2.39873 0.204834 1.97369 0.204834 1.44937ZM6.16862 7.46203L7.60806 16.874C7.72651 17.6485 8.40491 18.2215 9.20347 18.2215H21.5356C22.3342 18.2215 23.0126 17.6485 23.131 16.874L24.5149 7.82542C24.5441 7.63409 24.3931 7.46203 24.1958 7.46203H6.16862Z" fill="#030D45"/>
<path d="M23.1132 24.2342C23.1132 24.9333 22.5354 25.5 21.8226 25.5C21.1098 25.5 20.532 24.9333 20.532 24.2342C20.532 23.5351 21.1098 22.9684 21.8226 22.9684C22.5354 22.9684 23.1132 23.5351 23.1132 24.2342Z" fill="#030D45"/>
<path d="M10.2071 24.2342C10.2071 24.9333 9.62926 25.5 8.91647 25.5C8.20369 25.5 7.62586 24.9333 7.62586 24.2342C7.62586 23.5351 8.20369 22.9684 8.91647 22.9684C9.62926 22.9684 10.2071 23.5351 10.2071 24.2342Z" fill="#030D45"/>
</svg>
