<svg width="101" height="100" viewBox="0 0 101 100" fill="none" xmlns="http://www.w3.org/2000/svg">
<path fill-rule="evenodd" clip-rule="evenodd" d="M51.1946 29.1666C53.1123 29.1666 54.6668 30.6393 54.6668 32.4561L54.6668 54.3859C54.6668 55.2583 54.301 56.095 53.6498 56.7119L39.7609 69.8698C38.4049 71.1544 36.2065 71.1544 34.8505 69.8698C33.4945 68.5852 33.4945 66.5024 34.8505 65.2178L47.7224 53.0233V32.4561C47.7224 30.6393 49.277 29.1666 51.1946 29.1666Z" fill="#CECECE"/>
<path fill-rule="evenodd" clip-rule="evenodd" d="M50.5002 14.7435C41.4619 14.7435 29.1091 15.573 21.3958 16.1705C18.8592 16.3671 16.8673 18.3589 16.6708 20.8956C16.0732 28.6089 15.2438 40.9617 15.2438 49.9999C15.2438 59.0382 16.0732 71.3909 16.6708 79.1043C16.8673 81.6409 18.8592 83.6328 21.3958 83.8293C29.1091 84.4269 41.4619 85.2563 50.5002 85.2563C59.5384 85.2563 71.8912 84.4269 79.6045 83.8293C82.1412 83.6328 84.133 81.6409 84.3296 79.1043C84.9271 71.3909 85.7566 59.0382 85.7566 49.9999C85.7566 40.9617 84.9271 28.6089 84.3296 20.8956C84.133 18.3589 82.1412 16.3671 79.6045 16.1705C71.8912 15.573 59.5384 14.7435 50.5002 14.7435ZM20.9007 9.77943C28.6176 9.18157 41.1896 8.33325 50.5002 8.33325C59.8107 8.33325 72.3827 9.18158 80.0997 9.77943C85.786 10.22 90.2801 14.7141 90.7206 20.4004C91.3185 28.1174 92.1668 40.6894 92.1668 49.9999C92.1668 59.3105 91.3185 71.8825 90.7206 79.5994C90.2801 85.2857 85.7859 89.7799 80.0997 90.2204C72.3827 90.8183 59.8107 91.6666 50.5002 91.6666C41.1896 91.6666 28.6176 90.8183 20.9007 90.2204C15.2144 89.7799 10.7202 85.2857 10.2797 79.5994C9.68182 71.8825 8.8335 59.3105 8.8335 49.9999C8.8335 40.6894 9.68182 28.1174 10.2797 20.4004C10.7202 14.7141 15.2144 10.22 20.9007 9.77943Z" fill="#CECECE"/>
</svg>
