<svg width="145" height="47" viewBox="0 0 145 47" fill="none" xmlns="http://www.w3.org/2000/svg">
<path d="M9.30709 46.3793C8.93256 46.3793 8.56712 46.3746 8.19554 46.3664C7.42583 46.3565 6.65791 46.2905 5.89808 46.1687C5.18959 46.0483 4.50325 45.8244 3.86171 45.5043C3.22603 45.1868 2.64624 44.7706 2.14455 44.2716C1.63555 43.7784 1.21179 43.2065 0.890047 42.5783C0.564795 41.9461 0.3397 41.2684 0.222604 40.5689C0.0961928 39.8173 0.0278178 39.0573 0.0180689 38.2954C0.0102022 38.0397 0 37.1884 0 37.1884V9.17811C0 9.17811 0.0108168 8.33977 0.0180689 8.09339C0.0274346 7.33277 0.0954404 6.57397 0.221498 5.82353C0.338824 5.12211 0.56411 4.44248 0.889556 3.80819C1.21006 3.18046 1.63142 2.60803 2.13729 2.11307C2.64263 1.61342 3.2243 1.19507 3.86109 0.873263C4.50117 0.554244 5.18622 0.33193 5.89329 0.213769C6.65562 0.090843 7.42622 0.0244127 8.19861 0.0150353L9.3077 0H135.629L136.751 0.0153991C137.516 0.0243691 138.28 0.0902751 139.035 0.212556C139.75 0.332233 140.442 0.556136 141.089 0.876901C142.365 1.5254 143.403 2.55141 144.058 3.8111C144.378 4.44105 144.6 5.11516 144.715 5.81056C144.843 6.56713 144.914 7.33189 144.929 8.09872C144.933 8.44211 144.933 8.81096 144.933 9.17811C144.943 9.63281 144.943 10.0656 144.943 10.502V35.8785C144.943 36.319 144.943 36.7488 144.933 37.1822C144.933 37.5765 144.933 37.9377 144.928 38.3095C144.913 39.0627 144.843 39.8138 144.718 40.5569C144.603 41.2615 144.379 41.9444 144.054 42.5818C143.73 43.2031 143.309 43.7702 142.806 44.262C142.304 44.7637 141.723 45.1824 141.086 45.5018C140.44 45.8244 139.749 46.0491 139.035 46.1685C138.276 46.2909 137.508 46.357 136.738 46.3662C136.37 46.3747 136.002 46.3791 135.635 46.3792L134.302 46.3816L9.30709 46.3793Z" fill="black"/>
<g clip-path="url(#clip0_29_420)">
<path d="M32.964 28.2287C36.148 26.5037 38.562 25.1894 38.77 25.0873C39.4354 24.738 40.1228 23.8137 38.77 23.0959C38.3332 22.8702 35.9814 21.5966 32.964 19.9545L28.7814 24.1222L32.9638 28.2287H32.964Z" fill="#FFD900"/>
<path d="M28.7875 24.1216L15.4689 37.3655C15.7813 37.4064 16.1342 37.3246 16.5505 37.0988C17.4242 36.6272 26.685 31.6371 32.9704 28.229L28.7875 24.1216Z" fill="#F43249"/>
<path d="M28.7631 24.122L32.9455 19.9745C32.9455 19.9745 17.4629 11.6379 16.5259 11.146C16.1734 10.9392 15.7778 10.8781 15.424 10.9392L28.7631 24.1217V24.122Z" fill="#00EE76"/>
<path d="M28.7759 24.1238L15.4366 10.9413C14.8952 11.0647 14.4376 11.5366 14.4376 12.5013V35.807C14.4376 36.6905 14.7917 37.3268 15.4571 37.3879L28.7757 24.1236L28.7759 24.1238Z" fill="#00D3FF"/>
<path d="M72.2871 20.3516C69.894 20.3516 67.9168 22.1787 67.9168 24.6838C67.9168 27.1686 69.8733 29.0161 72.2873 29.0161C74.7011 29.0161 76.6573 27.189 76.6573 24.6838C76.6573 22.1787 74.7011 20.3516 72.2871 20.3516ZM72.2871 27.2922C70.9757 27.2922 69.8318 26.2036 69.8318 24.6645C69.8318 23.104 70.9766 22.0368 72.2871 22.0368C73.5975 22.0368 74.7423 23.104 74.7423 24.6645C74.7423 26.2036 73.5975 27.2922 72.2871 27.2922ZM62.7766 20.3516C60.3626 20.3516 58.4061 22.1787 58.4061 24.6838C58.4061 27.1686 60.3626 29.0161 62.7766 29.0161C65.1904 29.0161 67.1469 27.189 67.1469 24.6838C67.1469 22.1787 65.1904 20.3516 62.7764 20.3516H62.7766ZM62.7766 27.2922C61.465 27.2922 60.3214 26.2036 60.3214 24.6645C60.3214 23.104 61.4662 22.0368 62.7766 22.0368C64.088 22.0368 65.2319 23.104 65.2319 24.6645C65.2319 26.2036 64.1076 27.2922 62.7766 27.2922ZM51.4763 21.6863V23.5134H55.8878C55.7624 24.54 55.4097 25.2996 54.889 25.8133C54.2442 26.4496 53.2452 27.1481 51.4763 27.1481C48.7496 27.1481 46.6485 24.9718 46.6485 22.2819C46.6485 19.5919 48.7508 17.3745 51.4763 17.3745C52.9533 17.3745 54.0154 17.9496 54.8061 18.689L56.1165 17.395C55.0132 16.3482 53.5362 15.5476 51.4763 15.5476C47.7507 15.5476 44.6289 18.5654 44.6289 22.241C44.6289 25.9168 47.7507 28.9345 51.4763 28.9345C53.4947 28.9345 54.9936 28.2778 56.2004 27.0451C57.4281 25.8338 57.8028 24.1292 57.8028 22.7538C57.8028 22.3228 57.7615 21.9325 57.6984 21.6038L51.4763 21.6863ZM97.7178 23.1029C97.3637 22.1378 96.2406 20.3516 93.9922 20.3516C91.7441 20.3516 89.8922 22.0971 89.8922 24.6838C89.8922 27.1063 91.7441 29.0161 94.2005 29.0161C96.1982 29.0161 97.343 27.8048 97.8213 27.1063L96.3442 26.1209C95.8443 26.8399 95.1787 27.3115 94.2005 27.3115C93.2222 27.3115 92.5359 26.8806 92.0982 25.9972L97.9042 23.5953L97.7178 23.1029ZM91.8072 24.5613C91.766 22.8977 93.1188 22.0357 94.0752 22.0357C94.8453 22.0357 95.4697 22.4053 95.6982 22.9599L91.8072 24.5613ZM87.0831 28.729H88.9981V16.0397H87.0831V28.729ZM83.9622 21.3167H83.9C83.4632 20.803 82.6518 20.3516 81.6104 20.3516C79.4252 20.3516 77.4482 22.2614 77.4482 24.6838C77.4482 27.1063 79.4459 28.9959 81.6104 28.9959C82.6506 28.9959 83.4623 28.5442 83.9 28.0101H83.9622V28.6261C83.9622 30.2897 83.0667 31.1719 81.6312 31.1719C80.4656 31.1719 79.7369 30.3304 79.4459 29.6319L77.7816 30.3304C78.2597 31.4804 79.5298 32.897 81.6312 32.897C83.8784 32.897 85.7726 31.5827 85.7726 28.4004V20.6182H83.9622V21.3167ZM81.777 27.2922C80.4656 27.2922 79.3632 26.2036 79.3632 24.685C79.3632 23.1663 80.4665 22.0571 81.777 22.0571C83.0679 22.0571 84.1081 23.1663 84.1081 24.685C84.1072 26.1832 83.0667 27.2922 81.777 27.2922ZM106.646 16.04H102.067V28.729H103.982V23.924H106.646C108.769 23.924 110.849 22.4042 110.849 19.982C110.849 17.5595 108.769 16.0397 106.646 16.0397V16.04ZM106.708 22.1593H104.002V17.8055H106.708C108.123 17.8055 108.955 18.9759 108.955 19.9817C108.935 20.9673 108.124 22.1593 106.708 22.1593ZM118.487 20.3311C117.114 20.3311 115.678 20.9267 115.095 22.2819L116.781 22.9804C117.156 22.2819 117.822 22.0562 118.53 22.0562C119.529 22.0562 120.527 22.6515 120.548 23.6982V23.8219C120.194 23.6166 119.466 23.3286 118.55 23.3286C116.719 23.3286 114.866 24.3347 114.866 26.1832C114.866 27.8875 116.365 28.9754 118.03 28.9754C119.32 28.9754 120.028 28.4004 120.464 27.7232H120.527V28.7088H122.378V23.8421C122.358 21.6045 120.672 20.3309 118.487 20.3309V20.3311ZM118.259 27.2718C117.634 27.2718 116.76 26.9633 116.76 26.2045C116.76 25.2189 117.841 24.8493 118.778 24.8493C119.61 24.8493 120.006 25.0341 120.527 25.2803C120.381 26.4507 119.361 27.2718 118.259 27.2718ZM129.059 20.6193L126.874 26.1013H126.812L124.544 20.6191H122.484L125.896 28.2981L123.961 32.5896H125.958L131.182 20.6191H129.059L129.059 20.6193ZM111.911 28.729H113.826V16.0397H111.911V28.729Z" fill="white"/>
</g>
<defs>
<clipPath id="clip0_29_420">
<rect width="116.667" height="26.0746" fill="white" transform="translate(14.4376 10.7318)"/>
</clipPath>
</defs>
</svg>
