<svg width="209" height="38" viewBox="0 0 209 38" fill="none" xmlns="http://www.w3.org/2000/svg">
<path d="M111.577 12.6348C106.094 12.6348 102.218 13.9337 100.118 15.8819L100.598 13.1706H93.65L89.3423 37.6676H96.2901L98.8895 24.2641C99.6998 19.6445 103.197 15.9824 108.558 15.266C114.109 14.5229 117.518 18.1047 116.715 22.6574L114.061 37.6676H121.083L123.764 22.4563C124.777 16.6249 119.254 12.6348 111.577 12.6348Z" fill="#0063A9"/>
<path d="M157.03 5.72461L151.912 34.7476L151.392 37.6999H137.746L137.766 37.6731C129.482 37.5057 123.108 32.6051 123.932 25.2942C124.803 17.5614 132.783 12.7877 140.568 12.8881H145.646L145.16 15.332H141.716C134.566 15.2115 130.94 20.6477 130.981 26.6933C131.028 31.507 134.816 35.1022 139.886 35.3164H145.004L150.163 5.79163L157.03 5.72461Z" fill="#0063A9"/>
<path d="M151.924 34.7461L151.384 37.6918L151.904 34.7461H151.924Z" fill="#0063A9"/>
<path d="M39.5795 5.70959L33.9482 37.6715L40.8217 37.6048L46.4529 5.64258L39.5795 5.70959Z" fill="#0063A9"/>
<path d="M5.6177 6.65039L0 37.675L6.88023 37.6084L11.2084 11.8992L5.6177 6.65039Z" fill="#0063A9"/>
<path d="M208.474 15.5143L209 13.0171C207.13 12.9702 198.731 12.9769 196.685 12.9769C191.209 12.9769 187.833 16.8331 187.077 21.3522L184.322 37.7351H191.405L194.402 21.0309C195.172 16.4649 197.225 15.7351 201.431 15.5477C203.565 15.4606 206.299 15.4675 208.474 15.5143Z" fill="#0063A9"/>
<path d="M168.448 23.8945H179.379C180.19 20.8349 179.001 15.4118 172.081 15.3783C166.787 15.3515 161.73 19.4958 161.284 26.6997C160.987 31.5134 163.911 35.2358 169.278 35.2358H176.746L176.321 37.6661H167.806C160.312 37.8133 152.669 32.5442 153.945 25.2868C155.153 18.411 162.783 12.834 172.026 12.901C181.142 12.9679 186.948 17.2195 185.882 25.5012C185.841 25.8226 185.834 25.9029 185.753 26.3381H168.056L168.448 23.8945Z" fill="#0063A9"/>
<path d="M73.2175 23.8945H84.1491C84.9593 20.8349 83.7709 15.4118 76.8502 15.3783C71.5566 15.3515 66.4994 19.4958 66.0537 26.6997C65.7567 31.5134 68.6802 35.2358 74.0547 35.2358H81.5225L81.0972 37.6661H72.5829C65.0882 37.8133 57.4449 32.5442 58.721 25.2868C59.9296 18.411 67.5594 12.834 76.8028 12.901C85.918 12.9679 91.7247 17.2195 90.6579 25.5012C90.6174 25.8226 90.6107 25.9029 90.5297 26.3381H72.8328L73.2175 23.8945Z" fill="#0063A9"/>
<path d="M34.1703 32.9664C33.0225 36.6755 26.8242 38.6772 17.9791 37.7935C14.6301 37.4521 11.0717 36.7222 8.74902 35.3832C8.74902 35.3832 9.36342 31.6408 9.39043 31.614C11.0177 32.7789 15.5888 34.6804 18.7623 35.1557C24.2584 35.9725 27.128 34.5799 26.3718 32.4509C25.5683 30.2014 18.3842 27.3226 17.1351 26.6732C11.4364 23.7206 10.4844 20.8015 11.3621 18.0432C12.564 14.3542 20.5313 11.9642 28.4041 13.1291C31.9016 13.6446 34.3999 14.7224 36.4997 16.1886L34.0487 18.6323C32.7523 17.6414 30.1055 15.9543 27.1347 15.5191C22.4623 14.8295 18.3977 15.4054 18.1344 17.9696C17.8711 20.4936 24.5149 22.917 27.6884 24.6176C32.8806 27.4027 35.0481 30.2281 34.1703 32.9664Z" fill="#0063A9"/>
<path d="M50.4278 22.2536C48.841 23.2846 48.9964 25.4338 50.3671 26.6322L61.6834 37.6721H53.1083L45.4719 30.5956C42.8319 28.1452 43.3315 23.7935 46.4915 21.7649L60.2654 13.3359L64.4178 13.3961L50.4278 22.2536Z" fill="#0063A9"/>
<path d="M12.617 2.89246L11.7865 8.14812L3.11035 0H10.1188C11.6718 0.00669503 12.8533 1.37938 12.617 2.89246Z" fill="#DD0613"/>
</svg>
