<svg width="17" height="16" viewBox="0 0 17 16" fill="none" xmlns="http://www.w3.org/2000/svg">
<path fill-rule="evenodd" clip-rule="evenodd" d="M8.38791 1.56008C6.94513 0.181365 5.00035 -0.0227732 3.37117 0.60361C1.5547 1.302 0.0966797 3.04192 0.0966797 5.33137C0.0966797 7.0794 0.885036 8.65518 1.96464 10.0392C3.04406 11.423 4.4554 12.6669 5.78767 13.7572L5.81786 13.7819C6.31653 14.19 6.73522 14.5327 7.10788 14.7683C7.50259 15.0178 7.90951 15.1901 8.38791 15.1901C8.86632 15.1901 9.27323 15.0178 9.66794 14.7683C10.0406 14.5327 10.4593 14.19 10.958 13.7819L10.9882 13.7572C12.3204 12.6669 13.7318 11.423 14.8112 10.0392C15.8908 8.65518 16.6791 7.0794 16.6791 5.33137C16.6791 3.04192 15.2211 1.302 13.4047 0.60361C11.7755 -0.0227732 9.8307 0.181365 8.38791 1.56008Z" fill="#2C7EB8"/>
</svg>
