<svg width="101" height="100" viewBox="0 0 101 100" fill="none" xmlns="http://www.w3.org/2000/svg">
<path fill-rule="evenodd" clip-rule="evenodd" d="M23.061 14.0385C14.7844 17.2207 8.19231 25.1033 8.19231 35.5474C8.19231 43.8089 11.9164 51.7289 17.8804 59.3747C23.8455 67.0219 31.8051 74.0826 39.7557 80.5891C42.9931 83.2385 45.1554 84.9994 46.9567 86.1381C48.6701 87.2214 49.66 87.4766 50.5 87.4766C51.34 87.4766 52.3299 87.2214 54.0433 86.1381C55.8446 84.9994 58.0069 83.2385 61.2443 80.5891C69.1949 74.0826 77.1545 67.0219 83.1196 59.3747C89.0836 51.7289 92.8077 43.8089 92.8077 35.5474C92.8077 25.1033 86.2156 17.2207 77.939 14.0385C69.7377 10.8853 60.0888 12.4013 53.5551 20.757C52.8274 21.6876 51.6979 22.2335 50.5 22.2335C49.3021 22.2335 48.1726 21.6876 47.4449 20.757C40.9112 12.4013 31.2623 10.8853 23.061 14.0385ZM50.5 12.8047C41.7993 4.4904 30.0714 3.25935 20.2467 7.03674C9.29253 11.2484 0.5 21.7409 0.5 35.5474C0.5 46.0888 5.25416 55.5915 11.7647 63.9379C18.274 72.283 26.7851 79.7841 34.8193 86.359L35.0014 86.508C38.0086 88.9692 40.5335 91.0356 42.7808 92.4564C45.1611 93.9612 47.615 95 50.5 95C53.385 95 55.8389 93.9612 58.2192 92.4564C60.4665 91.0356 62.9914 88.9692 65.9987 86.508L66.1807 86.359C74.2149 79.7841 82.7259 72.283 89.2353 63.9379C95.7458 55.5915 100.5 46.0888 100.5 35.5474C100.5 21.7409 91.7075 11.2484 80.7533 7.03674C70.9286 3.25935 59.2007 4.4904 50.5 12.8047Z" fill="#CECECE"/>
</svg>
