<svg width="20" height="21" viewBox="0 0 20 21" fill="none" xmlns="http://www.w3.org/2000/svg">
<path fill-rule="evenodd" clip-rule="evenodd" d="M10.6416 2.63754C10.2266 2.35171 9.68326 2.35171 9.26819 2.63754L2.42564 7.34936C2.10643 7.56917 1.91207 7.92339 1.8977 8.30374C1.84803 9.61853 1.79538 11.9209 1.93997 13.5552C2.04905 14.788 2.33938 16.4176 2.57521 17.6165C2.68472 18.1732 3.16932 18.5775 3.74527 18.5775H6.93073C7.06644 18.5775 7.17646 18.4651 7.17646 18.3265V14.31C7.17646 13.3395 7.94657 12.5528 8.89654 12.5528H11.3053C12.2553 12.5528 13.0254 13.3395 13.0254 14.31V18.3265C13.0254 18.4651 13.1354 18.5775 13.2711 18.5775H16.1646C16.7405 18.5775 17.2251 18.1732 17.3346 17.6165C17.5704 16.4176 17.8608 14.788 17.9699 13.5552C18.1145 11.9209 18.0618 9.61853 18.0121 8.30374C17.9978 7.92339 17.8034 7.56917 17.4842 7.34936L10.6416 2.63754ZM8.44411 1.3886C9.35727 0.75979 10.5526 0.75979 11.4657 1.3886L18.3083 6.10042C19.0071 6.58162 19.4524 7.37276 19.4854 8.24565C19.535 9.55896 19.5923 11.9492 19.4382 13.6907C19.3214 15.0108 19.017 16.7089 18.7801 17.9132C18.5283 19.1934 17.4226 20.0837 16.1646 20.0837H13.2711C12.3211 20.0837 11.551 19.2969 11.551 18.3265V14.31C11.551 14.1713 11.441 14.059 11.3053 14.059H8.89654C8.76083 14.059 8.65082 14.1713 8.65082 14.31V18.3265C8.65082 19.2969 7.88071 20.0837 6.93073 20.0837H3.74527C2.48721 20.0837 1.38156 19.1934 1.12975 17.9132C0.892839 16.7089 0.588398 15.0108 0.471599 13.6907C0.317509 11.9492 0.374822 9.55896 0.424439 8.24566C0.457417 7.37276 0.902761 6.58162 1.60156 6.10042L8.44411 1.3886Z" fill="#021044"/>
</svg>
