<svg width="20" height="21" viewBox="0 0 20 21" fill="none" xmlns="http://www.w3.org/2000/svg">
<path d="M13.3332 7.99935C13.3332 8.45959 12.9601 8.83268 12.4998 8.83268C12.0396 8.83268 11.6665 8.45959 11.6665 7.99935C11.6665 7.53911 12.0396 7.16602 12.4998 7.16602C12.9601 7.16602 13.3332 7.53911 13.3332 7.99935Z" fill="#CECECE"/>
<path fill-rule="evenodd" clip-rule="evenodd" d="M7.98893 3.93536C10.3481 1.57623 14.2047 1.57623 16.5638 3.93536C18.9126 6.28409 18.9324 10.1391 16.5665 12.412C15.0511 14.0253 12.7982 14.5506 10.7759 14.0201C10.603 13.9778 10.4543 14.0188 10.3333 14.1398L5.82814 18.6449C5.70793 18.7651 5.54488 18.8327 5.37487 18.8327H2.30753C1.9535 18.8327 1.6665 18.5457 1.6665 18.1917V15.1243C1.6665 14.9543 1.73404 14.7913 1.85426 14.671L6.35941 10.1659C6.39286 10.1324 6.40943 10.0993 6.41692 10.0432C6.42603 9.97481 6.42001 9.87284 6.3843 9.72748C5.84639 7.77826 6.39249 5.53181 7.98893 3.93536ZM15.6573 4.84191C13.7988 2.98345 10.7539 2.98345 8.89548 4.84191C7.61872 6.11867 7.20551 7.89372 7.62203 9.3932L7.62628 9.4093C7.74007 9.86449 7.79644 10.542 7.26596 11.0724L2.94856 15.3898V17.5506H5.10935L9.42675 13.2332C9.88015 12.7798 10.4973 12.6289 11.0899 12.7771L11.0976 12.779C12.7109 13.2035 14.4747 12.7743 15.6419 11.5237C15.6503 11.5147 15.659 11.506 15.6679 11.4974C17.5062 9.74274 17.5217 6.70635 15.6573 4.84191Z" fill="#CECECE"/>
</svg>
