<svg width="18" height="21" viewBox="0 0 18 21" fill="none" xmlns="http://www.w3.org/2000/svg">
<path fill-rule="evenodd" clip-rule="evenodd" d="M8.95483 2.33472C4.94211 2.33472 1.55715 5.24993 1.83286 8.88045C1.8724 9.40115 1.93151 9.85442 2.01205 10.2141C2.41838 12.0287 3.69384 13.8313 5.13045 15.3616C6.55483 16.8788 8.07141 18.0592 8.85507 18.6316C8.91771 18.6774 8.99196 18.6774 9.0546 18.6316C9.83826 18.0592 11.3548 16.8788 12.7792 15.3616C14.2158 13.8313 15.4913 12.0287 15.8976 10.2141C15.9782 9.85442 16.0373 9.40115 16.0768 8.88045C16.3525 5.24993 12.9676 2.33472 8.95483 2.33472ZM0.350098 8.98286C-0.00166479 4.3508 4.28065 0.916992 8.95483 0.916992C13.629 0.916992 17.9113 4.3508 17.5596 8.98286C17.5174 9.53767 17.4518 10.0621 17.3515 10.5102C16.8644 12.6856 15.3842 14.7123 13.8868 16.3072C12.3773 17.9152 10.7816 19.1559 9.95861 19.7571C9.36255 20.1925 8.54712 20.1925 7.95106 19.7571C7.12807 19.1559 5.5324 17.9152 4.02284 16.3072C2.52551 14.7123 1.04532 12.6856 0.558187 10.5102C0.457861 10.0621 0.392232 9.53767 0.350098 8.98286Z" fill="#030D45"/>
<path fill-rule="evenodd" clip-rule="evenodd" d="M8.95483 8.00564C8.27063 8.00564 7.71597 8.53459 7.71597 9.18708C7.71597 9.83957 8.27063 10.3685 8.95483 10.3685C9.63904 10.3685 10.1937 9.83957 10.1937 9.18708C10.1937 8.53459 9.63904 8.00564 8.95483 8.00564ZM6.22932 9.18708C6.22932 7.7516 7.44958 6.58791 8.95483 6.58791C10.4601 6.58791 11.6803 7.7516 11.6803 9.18708C11.6803 10.6226 10.4601 11.7862 8.95483 11.7862C7.44958 11.7862 6.22932 10.6226 6.22932 9.18708Z" fill="#030D45"/>
</svg>
