<svg width="80" height="12" viewBox="0 0 80 12" fill="none" xmlns="http://www.w3.org/2000/svg">
<path d="M2.50574 11.6757H0.0864048V3.40541H2.50574V11.6757ZM2.59214 1.21622C2.59214 1.54054 2.47118 1.82703 2.22924 2.07568C1.99883 2.31352 1.68777 2.43243 1.29607 2.43243C0.90437 2.43243 0.587552 2.31352 0.345619 2.07568C0.115206 1.82703 0 1.54054 0 1.21622C0 0.891894 0.115206 0.610811 0.345619 0.372973C0.587552 0.124324 0.90437 0 1.29607 0C1.67625 0 1.98731 0.124324 2.22924 0.372973C2.47118 0.610811 2.59214 0.891894 2.59214 1.21622Z" fill="#FEFEFE"/>
<path d="M7.08587 5.02703C7.08587 5.27568 7.20107 5.50271 7.43148 5.70811C7.67342 5.91352 8.07664 6.0919 8.64115 6.24325L11.3197 6.97298C12.1492 7.2 12.7886 7.50811 13.2379 7.8973C13.6872 8.28649 13.9118 8.78919 13.9118 9.4054C13.9118 9.79459 13.8254 10.1513 13.6526 10.4757C13.4798 10.7892 13.1976 11.0595 12.8059 11.2865C12.4142 11.5135 11.9073 11.6865 11.2851 11.8054C10.663 11.9351 9.8969 12 8.98677 12C8.51442 12 8.04784 11.9676 7.58701 11.9027C7.13771 11.8378 6.70568 11.7513 6.29094 11.6432C5.88772 11.5243 5.51906 11.3946 5.18496 11.2541C4.85086 11.1027 4.56285 10.9459 4.32091 10.7838L5.01215 9.81081C5.49602 10.0919 6.06053 10.3405 6.70568 10.5568C7.36236 10.7622 8.12272 10.8649 8.98677 10.8649C9.85082 10.8649 10.4557 10.7568 10.8013 10.5405C11.1469 10.3243 11.3197 10.0541 11.3197 9.72973C11.3197 9.48108 11.1987 9.25946 10.9568 9.06486C10.7149 8.85946 10.2886 8.67568 9.67801 8.51351L6.99946 7.78379C6.26214 7.57838 5.65731 7.28649 5.18496 6.90811C4.72414 6.51892 4.49372 6 4.49372 5.35136C4.49372 5.00541 4.57437 4.68649 4.73566 4.3946C4.90847 4.0919 5.17344 3.83244 5.53058 3.61622C5.88772 3.4 6.34278 3.23244 6.89577 3.11352C7.44877 2.98379 8.11696 2.91892 8.90036 2.91892C9.85658 2.91892 10.7206 3.04325 11.4925 3.2919C12.2759 3.52973 12.9095 3.81081 13.3934 4.13514L12.7022 5.10811C12.2298 4.82703 11.6941 4.58379 11.095 4.37838C10.496 4.16216 9.76441 4.05406 8.90036 4.05406C8.28977 4.05406 7.83471 4.14595 7.53517 4.32973C7.23563 4.51352 7.08587 4.74595 7.08587 5.02703Z" fill="#FEFEFE"/>
<path d="M19.8778 7.94595H18.0633V11.6757H15.644V0.324324H18.0633V6.81081H19.8778L22.5564 3.24325H25.1485L22.1243 7.2973L25.3213 11.6757H22.5564L19.8778 7.94595Z" fill="#FEFEFE"/>
<path d="M31.5445 10.8649C32.109 10.8649 32.6332 10.773 33.1171 10.5892C33.6124 10.4054 34.0963 10.1459 34.5687 9.81081L35.2599 10.7838C35.041 10.9676 34.7818 11.1351 34.4822 11.2865C34.1942 11.4378 33.8774 11.5676 33.5318 11.6757C33.1977 11.773 32.8463 11.8487 32.4777 11.9027C32.109 11.9676 31.7403 12 31.3717 12C30.5537 12 29.8049 11.8973 29.1252 11.6919C28.457 11.4973 27.8867 11.2108 27.4143 10.8324C26.942 10.4432 26.5733 9.96757 26.3084 9.4054C26.0549 8.84324 25.9282 8.1946 25.9282 7.45946C25.9282 6.73514 26.0491 6.0919 26.2911 5.52973C26.5445 4.95676 26.8902 4.48109 27.3279 4.10271C27.7772 3.71352 28.3072 3.42163 28.9178 3.22703C29.5284 3.02163 30.2023 2.91892 30.9397 2.91892C31.6309 2.91892 32.2818 3.01622 32.8924 3.21081C33.503 3.40541 34.0329 3.6919 34.4822 4.07027C34.9316 4.43784 35.2887 4.88649 35.5537 5.41622C35.8186 5.94595 35.9511 6.54595 35.9511 7.21622V8.35135H28.5722C28.7104 9.24865 29.0388 9.89189 29.5572 10.2811C30.0871 10.6703 30.7496 10.8649 31.5445 10.8649ZM30.9397 3.97298C30.6056 3.97298 30.2945 4.03244 30.0065 4.15135C29.7185 4.27027 29.465 4.45946 29.2461 4.71892C29.0387 4.97838 28.8659 5.31352 28.7277 5.72433C28.601 6.13514 28.5318 6.63243 28.5203 7.21622H33.359C33.359 6.65406 33.2899 6.16757 33.1516 5.75676C33.0134 5.34595 32.829 5.01081 32.5986 4.75136C32.3797 4.48108 32.1205 4.28649 31.821 4.16757C31.533 4.03784 31.2392 3.97298 30.9397 3.97298Z" fill="#FEFEFE"/>
<path d="M47.4416 11.6757H45.0223V6.56757C45.0223 5.78919 44.8149 5.23244 44.4002 4.8973C43.9854 4.55135 43.3863 4.37838 42.6029 4.37838H40.3564V11.6757H37.9371V3.24325H42.6029C44.2504 3.24325 45.4658 3.52433 46.2492 4.08649C47.0441 4.63784 47.4416 5.46487 47.4416 6.56757V11.6757Z" fill="#FEFEFE"/>
<path d="M56.7659 10.5405V4.37838H54.6058C54.2141 4.37838 53.8512 4.43784 53.5171 4.55676C53.1945 4.66487 52.9122 4.84325 52.6703 5.0919C52.4399 5.34055 52.2556 5.65946 52.1173 6.04865C51.9906 6.43784 51.9272 6.90811 51.9272 7.45946C51.9272 8.01081 51.9906 8.48108 52.1173 8.87027C52.2556 9.25946 52.4399 9.57838 52.6703 9.82703C52.9122 10.0757 53.1945 10.2595 53.5171 10.3784C53.8512 10.4865 54.2141 10.5405 54.6058 10.5405H56.7659ZM54.6058 11.6757C53.8109 11.6757 53.0851 11.5784 52.4284 11.3838C51.7832 11.1892 51.2302 10.9081 50.7694 10.5405C50.3086 10.173 49.9514 9.72973 49.698 9.21081C49.4561 8.69189 49.3351 8.10811 49.3351 7.45946C49.3351 6.81081 49.4561 6.22703 49.698 5.70811C49.9514 5.18919 50.3086 4.74595 50.7694 4.37838C51.2302 4.01081 51.7832 3.72973 52.4284 3.53514C53.0851 3.34054 53.8109 3.24325 54.6058 3.24325H56.7659V0.324324H59.1852V11.6757H54.6058Z" fill="#FEFEFE"/>
<path d="M66.7814 10.8649C67.3459 10.8649 67.8701 10.773 68.354 10.5892C68.8494 10.4054 69.3332 10.1459 69.8056 9.81081L70.4968 10.7838C70.2779 10.9676 70.0187 11.1351 69.7192 11.2865C69.4312 11.4378 69.1143 11.5676 68.7687 11.6757C68.4346 11.773 68.0833 11.8487 67.7146 11.9027C67.3459 11.9676 66.9773 12 66.6086 12C65.7906 12 65.0418 11.8973 64.3621 11.6919C63.6939 11.4973 63.1236 11.2108 62.6513 10.8324C62.1789 10.4432 61.8103 9.96757 61.5453 9.4054C61.2918 8.84324 61.1651 8.1946 61.1651 7.45946C61.1651 6.73514 61.2861 6.0919 61.528 5.52973C61.7815 4.95676 62.1271 4.48109 62.5649 4.10271C63.0142 3.71352 63.5441 3.42163 64.1547 3.22703C64.7653 3.02163 65.4393 2.91892 66.1766 2.91892C66.8678 2.91892 67.5187 3.01622 68.1293 3.21081C68.7399 3.40541 69.2699 3.6919 69.7192 4.07027C70.1685 4.43784 70.5256 4.88649 70.7906 5.41622C71.0556 5.94595 71.1881 6.54595 71.1881 7.21622V8.35135H63.8091C63.9473 9.24865 64.2757 9.89189 64.7941 10.2811C65.3241 10.6703 65.9865 10.8649 66.7814 10.8649ZM66.1766 3.97298C65.8425 3.97298 65.5314 4.03244 65.2434 4.15135C64.9554 4.27027 64.702 4.45946 64.4831 4.71892C64.2757 4.97838 64.1029 5.31352 63.9646 5.72433C63.8379 6.13514 63.7688 6.63243 63.7573 7.21622H68.5959C68.5959 6.65406 68.5268 6.16757 68.3885 5.75676C68.2503 5.34595 68.066 5.01081 67.8356 4.75136C67.6167 4.48108 67.3575 4.28649 67.0579 4.16757C66.7699 4.03784 66.4761 3.97298 66.1766 3.97298Z" fill="#FEFEFE"/>
<path d="M80 4.37838H77.9263C77.1429 4.37838 76.5438 4.57838 76.1291 4.97838C75.7143 5.36757 75.507 5.95135 75.507 6.72973V11.6757H73.0876V6.72973C73.0876 5.62703 73.4563 4.77298 74.1936 4.16757C74.9424 3.55135 76.0139 3.24325 77.4079 3.24325H80V4.37838Z" fill="#FEFEFE"/>
<path d="M2.59214 1.21622C2.59214 1.54054 2.47118 1.82703 2.22924 2.07568C1.99883 2.31352 1.68777 2.43243 1.29607 2.43243C0.90437 2.43243 0.587552 2.31352 0.345619 2.07568C0.115206 1.82703 0 1.54054 0 1.21622C0 0.891894 0.115206 0.610811 0.345619 0.372973C0.587552 0.124324 0.90437 0 1.29607 0C1.67625 0 1.98731 0.124324 2.22924 0.372973C2.47118 0.610811 2.59214 0.891894 2.59214 1.21622Z" fill="#FF0000"/>
</svg>
