<svg width="209" height="38" viewBox="0 0 209 38" fill="none" xmlns="http://www.w3.org/2000/svg">
<path d="M111.577 12.6344C106.094 12.6344 102.218 13.9333 100.118 15.8816L100.598 13.1702H93.65L89.3423 37.6672H96.2901L98.8895 24.2637C99.6998 19.6442 103.197 15.982 108.558 15.2657C114.109 14.5225 117.518 18.1044 116.715 22.657L114.061 37.6672H121.083L123.764 22.456C124.777 16.6246 119.254 12.6344 111.577 12.6344Z" fill="#0063A9"/>
<path d="M157.03 5.72534L151.912 34.7484L151.392 37.7006H137.746L137.766 37.6738C129.482 37.5065 123.108 32.6059 123.932 25.2949C124.803 17.5621 132.783 12.7884 140.568 12.8888H145.646L145.16 15.3328H141.716C134.566 15.2123 130.94 20.6484 130.981 26.694C131.028 31.5078 134.816 35.1029 139.886 35.3172H145.004L150.163 5.79236L157.03 5.72534Z" fill="#0063A9"/>
<path d="M151.924 34.7477L151.384 37.6934L151.904 34.7477H151.924Z" fill="#0063A9"/>
<path d="M39.5795 5.71045L33.9482 37.6723L40.8217 37.6056L46.4529 5.64343L39.5795 5.71045Z" fill="#0063A9"/>
<path d="M5.6177 6.64941L0 37.6741L6.88023 37.6074L11.2084 11.8982L5.6177 6.64941Z" fill="#0063A9"/>
<path d="M208.474 15.5135L209 13.0162C207.13 12.9694 198.731 12.976 196.685 12.976C191.209 12.976 187.833 16.8322 187.077 21.3514L184.322 37.7342H191.405L194.402 21.03C195.172 16.464 197.225 15.7343 201.431 15.5468C203.565 15.4598 206.299 15.4666 208.474 15.5135Z" fill="#0063A9"/>
<path d="M168.448 23.8946H179.379C180.19 20.835 179.001 15.4119 172.081 15.3784C166.787 15.3516 161.73 19.4959 161.284 26.6998C160.987 31.5135 163.911 35.236 169.278 35.236H176.746L176.321 37.6662H167.806C160.312 37.8135 152.669 32.5443 153.945 25.2869C155.153 18.4111 162.783 12.8342 172.026 12.9011C181.142 12.9681 186.948 17.2196 185.882 25.5014C185.841 25.8227 185.834 25.9031 185.753 26.3382H168.056L168.448 23.8946Z" fill="#0063A9"/>
<path d="M73.2175 23.8946H84.1491C84.9593 20.835 83.7709 15.4119 76.8502 15.3784C71.5566 15.3516 66.4994 19.4959 66.0537 26.6998C65.7567 31.5135 68.6802 35.236 74.0547 35.236H81.5225L81.0972 37.6662H72.5829C65.0882 37.8135 57.4449 32.5443 58.721 25.2869C59.9296 18.4111 67.5594 12.8342 76.8028 12.9011C85.918 12.9681 91.7247 17.2196 90.6579 25.5014C90.6174 25.8227 90.6107 25.9031 90.5297 26.3382H72.8328L73.2175 23.8946Z" fill="#0063A9"/>
<path d="M34.1703 32.9654C33.0225 36.6745 26.8242 38.6763 17.9791 37.7925C14.6301 37.4511 11.0717 36.7213 8.74902 35.3822C8.74902 35.3822 9.36342 31.6398 9.39043 31.613C11.0177 32.778 15.5888 34.6794 18.7623 35.1547C24.2584 35.9715 27.128 34.5789 26.3718 32.4499C25.5683 30.2004 18.3842 27.3216 17.1351 26.6722C11.4364 23.7197 10.4844 20.8005 11.3621 18.0422C12.564 14.3532 20.5313 11.9632 28.4041 13.1281C31.9016 13.6437 34.3999 14.7214 36.4997 16.1877L34.0487 18.6313C32.7523 17.6404 30.1055 15.9533 27.1347 15.5182C22.4623 14.8286 18.3977 15.4044 18.1344 17.9686C17.8711 20.4927 24.5149 22.9161 27.6884 24.6166C32.8806 27.4017 35.0481 30.2272 34.1703 32.9654Z" fill="#0063A9"/>
<path d="M50.4278 22.2541C48.841 23.2851 48.9964 25.4342 50.3671 26.6327L61.6834 37.6726H53.1083L45.4719 30.5961C42.8319 28.1457 43.3315 23.794 46.4915 21.7654L60.2654 13.3364L64.4178 13.3966L50.4278 22.2541Z" fill="#0063A9"/>
<path d="M12.6173 2.89246L11.7868 8.14812L3.1106 0H10.1191C11.672 0.00669503 12.8536 1.37938 12.6173 2.89246Z" fill="#DD0613"/>
</svg>
