<svg width="24" height="25" viewBox="0 0 24 25" fill="none" xmlns="http://www.w3.org/2000/svg">
<path fill-rule="evenodd" clip-rule="evenodd" d="M12 5.95455C9.73557 5.95455 6.65128 6.14867 4.69268 6.29141C4.04222 6.33882 3.53846 6.85372 3.53846 7.48262V8.19328L11.3774 12.3107C11.7646 12.5141 12.2354 12.5141 12.6226 12.3107L20.4615 8.19328V7.48261C20.4615 6.85372 19.9578 6.33882 19.3073 6.29141C17.3487 6.14867 14.2644 5.95455 12 5.95455ZM20.4615 9.85722L13.3698 13.5822C12.5179 14.0296 11.4821 14.0296 10.6302 13.5822L3.53846 9.85722V17.5174C3.53846 18.1463 4.04222 18.6612 4.69268 18.7086C6.65128 18.8513 9.73557 19.0455 12 19.0455C14.2644 19.0455 17.3487 18.8513 19.3073 18.7086C19.9578 18.6612 20.4615 18.1463 20.4615 17.5174V9.85722ZM4.57444 4.84117C6.53421 4.69834 9.67068 4.5 12 4.5C14.3293 4.5 17.4658 4.69834 19.4256 4.84117C20.8902 4.94791 22 6.10588 22 7.48261V17.5174C22 18.8941 20.8902 20.0521 19.4256 20.1588C17.4658 20.3017 14.3293 20.5 12 20.5C9.67068 20.5 6.53421 20.3017 4.57444 20.1588C3.10982 20.0521 2 18.8941 2 17.5174V7.48262C2 6.10589 3.10982 4.94791 4.57444 4.84117Z" fill="#CECECE"/>
</svg>
