<svg width="24" height="23" viewBox="0 0 24 23" fill="none" xmlns="http://www.w3.org/2000/svg">
<path fill-rule="evenodd" clip-rule="evenodd" d="M7.28611 10.5174C7.28611 10.1103 7.61616 9.78024 8.02329 9.78024H15.8865C16.2937 9.78024 16.6237 10.1103 16.6237 10.5174C16.6237 10.9246 16.2937 11.2546 15.8865 11.2546H8.02329C7.61616 11.2546 7.28611 10.9246 7.28611 10.5174Z" fill="#030D45"/>
<path fill-rule="evenodd" clip-rule="evenodd" d="M7.28611 14.449C7.28611 14.0419 7.61616 13.7119 8.02329 13.7119H11.9549C12.3621 13.7119 12.6921 14.0419 12.6921 14.449C12.6921 14.8562 12.3621 15.1862 11.9549 15.1862H8.02329C7.61616 15.1862 7.28611 14.8562 7.28611 14.449Z" fill="#030D45"/>
<path fill-rule="evenodd" clip-rule="evenodd" d="M11.9549 4.37426C9.87443 4.37426 7.03198 4.55454 5.25789 4.68434C4.67403 4.72706 4.21399 5.1833 4.16658 5.76568C4.02974 7.44657 3.84594 10.067 3.84594 11.9918C3.84594 13.9166 4.02974 16.537 4.16658 18.2179C4.21399 18.8003 4.67403 19.2565 5.25789 19.2992C7.03198 19.429 9.87443 19.6093 11.9549 19.6093C14.0354 19.6093 16.8779 19.429 18.6519 19.2992C19.2358 19.2565 19.6958 18.8003 19.7433 18.2179C19.8801 16.537 20.0639 13.9166 20.0639 11.9918C20.0639 10.067 19.8801 7.44657 19.7433 5.76568C19.6958 5.1833 19.2358 4.72706 18.6519 4.68434C16.8779 4.55454 14.0354 4.37426 11.9549 4.37426ZM5.1503 3.21392C6.92519 3.08405 9.81527 2.8999 11.9549 2.8999C14.0946 2.8999 16.9846 3.08405 18.7595 3.21392C20.0671 3.30959 21.1063 4.33816 21.2128 5.64605C21.3497 7.32827 21.5383 10.0014 21.5383 11.9918C21.5383 13.9822 21.3497 16.6553 21.2128 18.3375C21.1063 19.6454 20.0671 20.674 18.7595 20.7696C16.9846 20.8995 14.0946 21.0837 11.9549 21.0837C9.81527 21.0837 6.92519 20.8995 5.1503 20.7696C3.8427 20.674 2.80355 19.6454 2.69708 18.3375C2.56013 16.6553 2.37158 13.9822 2.37158 11.9918C2.37158 10.0014 2.56013 7.32827 2.69708 5.64605C2.80355 4.33816 3.8427 3.30959 5.1503 3.21392Z" fill="#030D45"/>
<path fill-rule="evenodd" clip-rule="evenodd" d="M9.0062 1.91699C9.41333 1.91699 9.74338 2.24704 9.74338 2.65417V5.11144C9.74338 5.51857 9.41333 5.84862 9.0062 5.84862C8.59906 5.84862 8.26902 5.51857 8.26902 5.11144V2.65417C8.26902 2.24704 8.59907 1.91699 9.0062 1.91699Z" fill="#030D45"/>
<path fill-rule="evenodd" clip-rule="evenodd" d="M14.9036 1.91699C15.3108 1.91699 15.6408 2.24704 15.6408 2.65417L15.6408 5.11144C15.6408 5.51857 15.3108 5.84862 14.9036 5.84862C14.4965 5.84862 14.1665 5.51857 14.1665 5.11144L14.1665 2.65417C14.1665 2.24704 14.4965 1.91699 14.9036 1.91699Z" fill="#030D45"/>
</svg>
