<svg width="20" height="21" viewBox="0 0 20 21" fill="none" xmlns="http://www.w3.org/2000/svg">
<path fill-rule="evenodd" clip-rule="evenodd" d="M10 6.71314C8.8144 6.71314 7.83961 7.11698 7.16667 7.84639C6.50383 8.56485 6.20655 9.51986 6.20655 10.5C6.20655 11.4801 6.50383 12.4352 7.16667 13.1536C7.83961 13.883 8.8144 14.2869 10 14.2869C11.1856 14.2869 12.1604 13.883 12.8333 13.1536C13.4962 12.4352 13.7934 11.4801 13.7934 10.5C13.7934 9.51986 13.4962 8.56485 12.8333 7.84639C12.1604 7.11698 11.1856 6.71314 10 6.71314ZM8.36461 8.94777C8.68478 8.60074 9.19961 8.33891 10 8.33891C10.8004 8.33891 11.3152 8.60074 11.6354 8.94777C11.9657 9.30575 12.1648 9.83776 12.1648 10.5C12.1648 11.1622 11.9657 11.6943 11.6354 12.0522C11.3152 12.3993 10.8004 12.6611 10 12.6611C9.19961 12.6611 8.68478 12.3993 8.36461 12.0522C8.03435 11.6943 7.83515 11.1622 7.83515 10.5C7.83515 9.83776 8.03435 9.30575 8.36461 8.94777Z" fill="black"/>
<path fill-rule="evenodd" clip-rule="evenodd" d="M10 2.5C6.11297 2.5 3.58698 3.81971 2.04049 5.52671C0.5183 7.2069 0 9.20232 0 10.5C0 11.7977 0.5183 13.7931 2.04049 15.4733C3.58698 17.1803 6.11297 18.5 10 18.5C13.887 18.5 16.413 17.1803 17.9595 15.4733C19.4817 13.7931 20 11.7977 20 10.5C20 9.20232 19.4817 7.2069 17.9595 5.52671C16.413 3.81971 13.887 2.5 10 2.5ZM3.17925 6.52303C4.40408 5.17107 6.49692 3.99832 10 3.99832C13.5031 3.99832 15.5959 5.17107 16.8208 6.52303C18.0699 7.9018 18.4753 9.53181 18.4753 10.5C18.4753 11.4682 18.0699 13.0982 16.8208 14.477C15.5959 15.8289 13.5031 17.0017 10 17.0017C6.49692 17.0017 4.40408 15.8289 3.17925 14.477C1.93013 13.0982 1.52468 11.4682 1.52468 10.5C1.52468 9.53181 1.93013 7.9018 3.17925 6.52303Z" fill="black"/>
</svg>
