<svg width="21" height="22" viewBox="0 0 21 22" fill="none" xmlns="http://www.w3.org/2000/svg">
<path d="M2.26221 3.28401L4.52442 1.31363C5.35734 0.58815 6.62067 0.675254 7.34615 1.50818L9.04206 3.45527C9.53961 4.02651 9.67172 4.82983 9.3833 5.53032L9.0862 6.25188C8.79778 6.95237 8.92988 7.75569 9.42743 8.32693L12.1028 11.3985C12.6003 11.9697 13.3779 12.2108 14.1114 12.0213L14.8669 11.826C15.6003 11.6365 16.3779 11.8776 16.8754 12.4488L19.049 14.9443C19.7745 15.7772 19.6874 17.0406 18.8545 17.766L16.5923 19.7364C15.3429 20.8246 13.4479 20.694 12.3597 19.4446L1.97038 7.5166C0.882171 6.26722 1.01283 4.37222 2.26221 3.28401Z" stroke="currentColor" stroke-width="1.5" stroke-linecap="round"/>
</svg>
