<svg width="33" height="33" viewBox="0 0 30 30" fill="none" xmlns="http://www.w3.org/2000/svg">
<rect x="0.5" y="0.5" width="29" height="29" rx="14.5" fill="white" stroke="#C1C1C1"/>
<circle cx="15.2018" cy="11.1554" r="3.38444" stroke="#BEBEBE" stroke-width="1.0625" stroke-linecap="round" stroke-linejoin="round"/>
<path fill-rule="evenodd" clip-rule="evenodd" d="M9.83351 19.2472C9.8326 19.0093 9.88581 18.7742 9.98911 18.5599C10.3133 17.9116 11.2275 17.5679 11.9861 17.4123C12.5332 17.2956 13.0878 17.2176 13.6459 17.1789C14.6791 17.0881 15.7183 17.0881 16.7515 17.1789C17.3095 17.218 17.8641 17.296 18.4113 17.4123C19.1699 17.5679 20.0841 17.8791 20.4083 18.5599C20.616 18.9968 20.616 19.504 20.4083 19.9409C20.0841 20.6217 19.1699 20.9329 18.4113 21.082C17.8649 21.2036 17.31 21.2838 16.7515 21.3219C15.9105 21.3932 15.0657 21.4062 14.2229 21.3608C14.0284 21.3608 13.8404 21.3608 13.6459 21.3219C13.0894 21.2843 12.5367 21.2041 11.9925 21.082C11.2275 20.9329 10.3198 20.6217 9.98911 19.9409C9.88634 19.7241 9.83318 19.4871 9.83351 19.2472Z" stroke="#BEBEBE" stroke-width="1.0625" stroke-linecap="round" stroke-linejoin="round"/>
</svg>
