<svg width="80" height="80" viewBox="0 0 80 80" fill="none" xmlns="http://www.w3.org/2000/svg">
<path d="M53.3333 80H44.4444V71.1111H53.3333V80ZM44.4444 48.8889H35.5556V71.1111H44.4444V48.8889ZM80 40H71.1111V57.7778H80V40ZM71.1111 31.1111H62.2222V40H71.1111V31.1111ZM17.7778 40H8.88889V48.8889H17.7778V40ZM8.88889 31.1111H0V40H8.88889V31.1111ZM40 8.88889H48.8889V0H40V8.88889ZM6.66667 6.66667V20H20V6.66667H6.66667ZM26.6667 26.6667H0V0H26.6667V26.6667ZM6.66667 60V73.3333H20V60H6.66667ZM26.6667 80H0V53.3333H26.6667V80ZM60 6.66667V20H73.3333V6.66667H60ZM80 26.6667H53.3333V0H80V26.6667ZM71.1111 71.1111V57.7778H53.3333V66.6667H62.2222V80H80V71.1111H71.1111ZM62.2222 40H44.4444V48.8889H62.2222V40ZM44.4444 31.1111H17.7778V40H26.6667V48.8889H35.5556V40H44.4444V31.1111ZM48.8889 26.6667V17.7778H40V8.88889H31.1111V26.6667H48.8889ZM16.6667 10H10V16.6667H16.6667V10ZM16.6667 63.3333H10V70H16.6667V63.3333ZM70 10H63.3333V16.6667H70V10Z" fill="#004E85"/>
</svg>
