<svg width="370" height="293" viewBox="0 0 370 293" fill="none" xmlns="http://www.w3.org/2000/svg">
<path d="M166.153 180.703C166.153 185.383 164.842 189.813 162.534 193.556C158.229 200.794 150.305 205.661 141.195 205.661C132.086 205.661 124.162 200.794 119.857 193.556C117.549 189.813 116.238 185.383 116.238 180.703C116.238 166.914 127.407 155.746 141.195 155.746C154.984 155.746 166.153 166.914 166.153 180.703Z" stroke="#0063A9" stroke-width="4.4923" stroke-miterlimit="10" stroke-linecap="round" stroke-linejoin="round"/>
<path d="M131.471 180.7L137.648 186.877L150.937 174.586" stroke="#0063A9" stroke-width="4.4923" stroke-linecap="round" stroke-linejoin="round"/>
<path d="M220.755 106.145C219.258 105.895 217.698 105.833 216.076 105.833H153.683C151.936 105.833 150.251 105.958 148.629 106.207C149.502 104.46 150.75 102.838 152.248 101.341L172.525 81.0008C181.073 72.5154 194.925 72.5154 203.472 81.0008L214.391 92.0441C218.384 95.9749 220.506 100.966 220.755 106.145Z" stroke="#0063A9" stroke-width="4.4923" stroke-linecap="round" stroke-linejoin="round"/>
<path d="M247.266 137.027V168.223C247.266 186.941 234.788 199.42 216.07 199.42H157.608C159.542 197.797 161.227 195.801 162.537 193.555C164.845 189.811 166.156 185.381 166.156 180.702C166.156 166.913 154.987 155.744 141.198 155.744C133.711 155.744 127.035 159.051 122.48 164.23V137.027C122.48 120.056 132.713 108.201 148.623 106.204C150.245 105.955 151.93 105.83 153.677 105.83H216.07C217.692 105.83 219.252 105.892 220.749 106.142C236.847 108.014 247.266 119.931 247.266 137.027Z" stroke="#0063A9" stroke-width="4.4923" stroke-linecap="round" stroke-linejoin="round"/>
<path d="M247.265 140.148H228.547C221.684 140.148 216.068 145.764 216.068 152.627C216.068 159.49 221.684 165.106 228.547 165.106H247.265" stroke="#0063A9" stroke-width="4.4923" stroke-linecap="round" stroke-linejoin="round"/>
<path d="M294.5 65.2699L300.688 71.4362L314 59.166" stroke="#0063A9" stroke-width="4.4923" stroke-linecap="round" stroke-linejoin="round"/>
<path d="M36.5 154.492L42.2115 160.184L54.5 148.857" stroke="#0063A9" stroke-width="4.4923" stroke-linecap="round" stroke-linejoin="round"/>
<path d="M135.5 19.5688L139.308 23.3634L147.5 15.8125" stroke="#0063A9" stroke-width="2.99486" stroke-linecap="round" stroke-linejoin="round"/>
<path d="M20.1982 246.367C20.9809 246.751 21.5958 247.286 22.043 247.973C22.4903 248.659 22.7139 249.442 22.7139 250.321C22.7139 251.662 22.2427 252.788 21.3003 253.699C20.3579 254.609 19.2079 255.064 17.8502 255.064H10.6146V238.293H17.3231C18.6489 238.293 19.759 238.732 20.6534 239.611C21.5639 240.489 22.0191 241.576 22.0191 242.869C22.0191 244.371 21.4121 245.537 20.1982 246.367ZM17.3231 240.378H12.8428V245.505H17.3231C18.0259 245.505 18.6169 245.257 19.0961 244.762C19.5753 244.267 19.8149 243.66 19.8149 242.941C19.8149 242.238 19.5673 241.639 19.0721 241.144C18.593 240.633 18.01 240.378 17.3231 240.378ZM12.8428 252.98H17.8502C18.6009 252.98 19.2319 252.716 19.743 252.189C20.2541 251.662 20.5097 251.015 20.5097 250.249C20.5097 249.498 20.2461 248.859 19.719 248.332C19.2239 247.805 18.6009 247.541 17.8502 247.541H12.8428V252.98ZM35.1285 245.145V243.085H37.213V255.064H35.1285V253.004C34.1063 254.585 32.5969 255.376 30.6003 255.376C28.9072 255.376 27.4777 254.769 26.3117 253.555C25.1297 252.325 24.5387 250.832 24.5387 249.075C24.5387 247.334 25.1297 245.848 26.3117 244.618C27.4936 243.388 28.9232 242.774 30.6003 242.774C32.5969 242.774 34.1063 243.564 35.1285 245.145ZM30.8639 253.363C32.0778 253.363 33.092 252.956 33.9066 252.141C34.7212 251.295 35.1285 250.273 35.1285 249.075C35.1285 247.861 34.7212 246.847 33.9066 246.032C33.092 245.201 32.0778 244.786 30.8639 244.786C29.6659 244.786 28.6596 245.201 27.845 246.032C27.0304 246.847 26.6231 247.861 26.6231 249.075C26.6231 250.273 27.0304 251.295 27.845 252.141C28.6596 252.956 29.6659 253.363 30.8639 253.363ZM54.6985 253.076V243.085H56.7829V255.064H40.3711V243.085H42.4555V253.076H47.5348V243.085H49.6192V253.076H54.6985ZM72.4367 248.931C73.7624 249.49 74.4253 250.44 74.4253 251.782C74.4253 252.82 74.018 253.683 73.2034 254.37C72.3888 255.04 71.2627 255.376 69.8252 255.376C67.4293 255.376 65.824 254.418 65.0094 252.501L66.7584 251.471C67.2057 252.78 68.2359 253.435 69.8491 253.435C70.6318 253.435 71.2467 253.268 71.694 252.932C72.1412 252.597 72.3648 252.149 72.3648 251.59C72.3648 251.111 72.1811 250.72 71.8138 250.416C71.4624 250.113 70.9832 249.961 70.3762 249.961H68.6272V248.068H69.921C70.528 248.068 70.9992 247.925 71.3346 247.637C71.67 247.334 71.8377 246.926 71.8377 246.415C71.8377 245.888 71.6381 245.473 71.2387 245.169C70.8394 244.85 70.3044 244.69 69.6335 244.69C68.2918 244.69 67.3814 245.257 66.9022 246.391L65.2011 245.409C66.0476 243.652 67.5251 242.774 69.6335 242.774C70.9113 242.774 71.9336 243.109 72.7002 243.78C73.4829 244.435 73.8742 245.257 73.8742 246.248C73.8742 247.461 73.3951 248.356 72.4367 248.931ZM86.6028 245.145V243.085H88.6872V255.064H86.6028V253.004C85.5805 254.585 84.0711 255.376 82.0745 255.376C80.3814 255.376 78.9519 254.769 77.7859 253.555C76.6039 252.325 76.0129 250.832 76.0129 249.075C76.0129 247.334 76.6039 245.848 77.7859 244.618C78.9679 243.388 80.3974 242.774 82.0745 242.774C84.0711 242.774 85.5805 243.564 86.6028 245.145ZM82.3381 253.363C83.552 253.363 84.5663 252.956 85.3809 252.141C86.1955 251.295 86.6028 250.273 86.6028 249.075C86.6028 247.861 86.1955 246.847 85.3809 246.032C84.5663 245.201 83.552 244.786 82.3381 244.786C81.1401 244.786 80.1339 245.201 79.3193 246.032C78.5047 246.847 78.0974 247.861 78.0974 249.075C78.0974 250.273 78.5047 251.295 79.3193 252.141C80.1339 252.956 81.1401 253.363 82.3381 253.363ZM96.0621 248.883L101.98 255.064H99.3923L93.9297 249.386V255.064H91.8453V243.085H93.9297V248.38L99.1048 243.085H101.788L96.0621 248.883ZM112.738 245.145V243.085H114.822V255.064H112.738V253.004C111.715 254.585 110.206 255.376 108.209 255.376C106.516 255.376 105.087 254.769 103.921 253.555C102.739 252.325 102.148 250.832 102.148 249.075C102.148 247.334 102.739 245.848 103.921 244.618C105.103 243.388 106.532 242.774 108.209 242.774C110.206 242.774 111.715 243.564 112.738 245.145ZM108.473 253.363C109.687 253.363 110.701 252.956 111.516 252.141C112.33 251.295 112.738 250.273 112.738 249.075C112.738 247.861 112.33 246.847 111.516 246.032C110.701 245.201 109.687 244.786 108.473 244.786C107.275 244.786 106.269 245.201 105.454 246.032C104.64 246.847 104.232 247.861 104.232 249.075C104.232 250.273 104.64 251.295 105.454 252.141C106.269 252.956 107.275 253.363 108.473 253.363ZM124.449 248.931C125.775 249.49 126.438 250.44 126.438 251.782C126.438 252.82 126.03 253.683 125.216 254.37C124.401 255.04 123.275 255.376 121.838 255.376C119.442 255.376 117.836 254.418 117.022 252.501L118.771 251.471C119.218 252.78 120.248 253.435 121.862 253.435C122.644 253.435 123.259 253.268 123.706 252.932C124.154 252.597 124.377 252.149 124.377 251.59C124.377 251.111 124.194 250.72 123.826 250.416C123.475 250.113 122.996 249.961 122.389 249.961H120.64V248.068H121.933C122.54 248.068 123.012 247.925 123.347 247.637C123.682 247.334 123.85 246.926 123.85 246.415C123.85 245.888 123.65 245.473 123.251 245.169C122.852 244.85 122.317 244.69 121.646 244.69C120.304 244.69 119.394 245.257 118.915 246.391L117.213 245.409C118.06 243.652 119.537 242.774 121.646 242.774C122.924 242.774 123.946 243.109 124.713 243.78C125.495 244.435 125.887 245.257 125.887 246.248C125.887 247.461 125.407 248.356 124.449 248.931ZM139.597 252.477L143.048 243.085H145.276L140.388 255.807C139.877 257.165 139.158 258.195 138.232 258.898C137.305 259.617 136.251 259.936 135.069 259.856V257.916C136.523 258.027 137.601 257.229 138.304 255.52L138.495 255.088L133.296 243.085H135.501L139.597 252.477ZM152.179 255.376C150.374 255.376 148.872 254.777 147.674 253.579C146.476 252.365 145.878 250.864 145.878 249.075C145.878 247.286 146.476 245.792 147.674 244.594C148.872 243.38 150.374 242.774 152.179 242.774C153.361 242.774 154.423 243.061 155.365 243.636C156.308 244.195 157.01 244.954 157.474 245.912L155.725 246.918C155.421 246.28 154.95 245.768 154.311 245.385C153.688 245.002 152.977 244.81 152.179 244.81C150.981 244.81 149.974 245.217 149.16 246.032C148.361 246.863 147.962 247.877 147.962 249.075C147.962 250.257 148.361 251.263 149.16 252.094C149.974 252.908 150.981 253.315 152.179 253.315C152.977 253.315 153.696 253.132 154.335 252.764C154.974 252.381 155.461 251.87 155.797 251.231L157.569 252.261C157.042 253.22 156.3 253.978 155.341 254.537C154.383 255.096 153.329 255.376 152.179 255.376ZM159.651 243.085H170.025V255.064H167.941V245.074H161.735V255.064H159.651V243.085ZM184.698 250.033H174.659C174.867 251.087 175.354 251.918 176.121 252.525C176.888 253.116 177.846 253.411 178.996 253.411C180.577 253.411 181.727 252.828 182.446 251.662L184.219 252.669C183.037 254.473 181.28 255.376 178.948 255.376C177.063 255.376 175.514 254.785 174.3 253.603C173.118 252.389 172.527 250.88 172.527 249.075C172.527 247.254 173.11 245.752 174.276 244.57C175.442 243.373 176.952 242.774 178.804 242.774C180.561 242.774 181.991 243.396 183.093 244.642C184.211 245.856 184.77 247.342 184.77 249.099C184.77 249.402 184.746 249.714 184.698 250.033ZM178.804 244.738C177.702 244.738 176.776 245.05 176.025 245.673C175.29 246.295 174.835 247.142 174.659 248.212H182.662C182.486 247.11 182.047 246.256 181.344 245.649C180.641 245.042 179.795 244.738 178.804 244.738ZM201.494 253.076V243.085H203.578V255.064H187.166V243.085H189.251V253.076H194.33V243.085H196.414V253.076H201.494ZM215.063 248.068V243.085H217.147V255.064H215.063V250.057H208.858V255.064H206.773V243.085H208.858V248.068H215.063ZM230.431 253.555C229.217 254.769 227.724 255.376 225.951 255.376C224.178 255.376 222.684 254.769 221.47 253.555C220.256 252.341 219.649 250.848 219.649 249.075C219.649 247.302 220.256 245.808 221.47 244.594C222.684 243.38 224.178 242.774 225.951 242.774C227.724 242.774 229.217 243.38 230.431 244.594C231.661 245.824 232.276 247.318 232.276 249.075C232.276 250.832 231.661 252.325 230.431 253.555ZM225.951 253.339C227.149 253.339 228.155 252.932 228.969 252.118C229.784 251.303 230.191 250.289 230.191 249.075C230.191 247.861 229.784 246.847 228.969 246.032C228.155 245.217 227.149 244.81 225.951 244.81C224.769 244.81 223.77 245.217 222.956 246.032C222.141 246.847 221.734 247.861 221.734 249.075C221.734 250.289 222.141 251.303 222.956 252.118C223.77 252.932 224.769 253.339 225.951 253.339ZM250.833 253.555C249.62 254.769 248.126 255.376 246.353 255.376C244.58 255.376 243.087 254.769 241.873 253.555C240.659 252.341 240.052 250.848 240.052 249.075C240.052 247.302 240.659 245.808 241.873 244.594C243.087 243.38 244.58 242.774 246.353 242.774C248.126 242.774 249.62 243.38 250.833 244.594C252.063 245.824 252.678 247.318 252.678 249.075C252.678 250.832 252.063 252.325 250.833 253.555ZM246.353 253.339C247.551 253.339 248.557 252.932 249.372 252.118C250.187 251.303 250.594 250.289 250.594 249.075C250.594 247.861 250.187 246.847 249.372 246.032C248.557 245.217 247.551 244.81 246.353 244.81C245.171 244.81 244.173 245.217 243.358 246.032C242.544 246.847 242.136 247.861 242.136 249.075C242.136 250.289 242.544 251.303 243.358 252.118C244.173 252.932 245.171 253.339 246.353 253.339ZM262.683 255.304V259.856H260.622V255.304C258.753 255.096 257.26 254.418 256.142 253.268C255.024 252.133 254.465 250.736 254.465 249.075C254.465 247.414 255.024 246.016 256.142 244.882C257.26 243.732 258.753 243.053 260.622 242.845V238.293H262.683V242.845C264.551 243.053 266.045 243.732 267.163 244.882C268.281 246.016 268.84 247.414 268.84 249.075C268.84 250.736 268.281 252.133 267.163 253.268C266.045 254.418 264.551 255.096 262.683 255.304ZM256.525 249.075C256.525 250.193 256.885 251.135 257.603 251.902C258.338 252.653 259.344 253.116 260.622 253.291V244.858C259.36 245.018 258.362 245.481 257.627 246.248C256.893 246.998 256.525 247.941 256.525 249.075ZM262.683 244.858V253.291C263.945 253.116 264.935 252.653 265.654 251.902C266.388 251.135 266.756 250.193 266.756 249.075C266.756 247.957 266.388 247.022 265.654 246.272C264.935 245.505 263.945 245.034 262.683 244.858ZM281.414 253.555C280.2 254.769 278.706 255.376 276.934 255.376C275.161 255.376 273.667 254.769 272.453 253.555C271.239 252.341 270.632 250.848 270.632 249.075C270.632 247.302 271.239 245.808 272.453 244.594C273.667 243.38 275.161 242.774 276.934 242.774C278.706 242.774 280.2 243.38 281.414 244.594C282.644 245.824 283.259 247.318 283.259 249.075C283.259 250.832 282.644 252.325 281.414 253.555ZM276.934 253.339C278.131 253.339 279.138 252.932 279.952 252.118C280.767 251.303 281.174 250.289 281.174 249.075C281.174 247.861 280.767 246.847 279.952 246.032C279.138 245.217 278.131 244.81 276.934 244.81C275.752 244.81 274.753 245.217 273.939 246.032C273.124 246.847 272.717 247.861 272.717 249.075C272.717 250.289 273.124 251.303 273.939 252.118C274.753 252.932 275.752 253.339 276.934 253.339ZM292.329 242.774C294.006 242.774 295.435 243.388 296.617 244.618C297.799 245.848 298.39 247.334 298.39 249.075C298.39 250.832 297.799 252.325 296.617 253.555C295.451 254.769 294.022 255.376 292.329 255.376C290.348 255.376 288.839 254.585 287.8 253.004V259.856H285.716V243.085H287.8V245.145C288.839 243.564 290.348 242.774 292.329 242.774ZM292.065 253.363C293.263 253.363 294.269 252.956 295.084 252.141C295.899 251.295 296.306 250.273 296.306 249.075C296.306 247.861 295.899 246.847 295.084 246.032C294.269 245.201 293.263 244.786 292.065 244.786C290.851 244.786 289.837 245.201 289.022 246.032C288.208 246.847 287.8 247.861 287.8 249.075C287.8 250.273 288.208 251.295 289.022 252.141C289.837 252.956 290.851 253.363 292.065 253.363ZM310.629 243.085H312.857V255.064H310.82V246.367L307.011 252.501H306.747L302.938 246.367V255.064H300.877V243.085H303.106L306.867 249.147L310.629 243.085ZM317.141 243.085H326.03V255.064H323.945V245.098H319.226V249.985C319.226 251.902 318.842 253.268 318.075 254.082C317.309 254.881 316.183 255.208 314.697 255.064V253.1C315.528 253.212 316.143 253.028 316.542 252.549C316.941 252.054 317.141 251.183 317.141 249.937V243.085ZM340.689 250.033H330.65C330.857 251.087 331.345 251.918 332.111 252.525C332.878 253.116 333.836 253.411 334.986 253.411C336.568 253.411 337.718 252.828 338.436 251.662L340.209 252.669C339.027 254.473 337.27 255.376 334.938 255.376C333.054 255.376 331.504 254.785 330.29 253.603C329.108 252.389 328.517 250.88 328.517 249.075C328.517 247.254 329.1 245.752 330.266 244.57C331.432 243.373 332.942 242.774 334.795 242.774C336.552 242.774 337.981 243.396 339.083 244.642C340.201 245.856 340.76 247.342 340.76 249.099C340.76 249.402 340.737 249.714 340.689 250.033ZM334.795 244.738C333.693 244.738 332.766 245.05 332.015 245.673C331.281 246.295 330.826 247.142 330.65 248.212H338.652C338.476 247.11 338.037 246.256 337.334 245.649C336.632 245.042 335.785 244.738 334.795 244.738ZM351.446 248.068V243.085H353.531V255.064H351.446V250.057H345.241V255.064H343.157V243.085H345.241V248.068H351.446ZM357.422 252.597H359.818L358.261 258.419H356.464L357.422 252.597ZM64.2046 284.376C62.3997 284.376 60.8982 283.777 59.7003 282.579C58.5023 281.365 57.9034 279.864 57.9034 278.075C57.9034 276.286 58.5023 274.792 59.7003 273.594C60.8982 272.38 62.3997 271.774 64.2046 271.774C65.3865 271.774 66.4487 272.061 67.3911 272.636C68.3335 273.195 69.0363 273.954 69.4995 274.912L67.7505 275.918C67.447 275.28 66.9758 274.768 66.3369 274.385C65.714 274.002 65.0032 273.81 64.2046 273.81C63.0066 273.81 62.0003 274.217 61.1857 275.032C60.3871 275.863 59.9878 276.877 59.9878 278.075C59.9878 279.257 60.3871 280.263 61.1857 281.094C62.0003 281.908 63.0066 282.315 64.2046 282.315C65.0032 282.315 65.722 282.132 66.3609 281.764C66.9998 281.381 67.4869 280.87 67.8224 280.231L69.5953 281.261C69.0682 282.22 68.3255 282.978 67.3671 283.537C66.4088 284.096 65.3546 284.376 64.2046 284.376ZM85.6448 277.907C86.8747 278.418 87.4896 279.345 87.4896 280.686C87.4896 281.708 87.1542 282.531 86.4834 283.154C85.8125 283.761 84.8701 284.064 83.6562 284.064H77.6665V272.085H83.177C84.359 272.085 85.2774 272.38 85.9323 272.971C86.6032 273.562 86.9386 274.353 86.9386 275.343C86.9386 276.493 86.5073 277.348 85.6448 277.907ZM83.0812 273.954H79.703V277.092H83.0812C84.2951 277.092 84.9021 276.557 84.9021 275.487C84.9021 274.465 84.2951 273.954 83.0812 273.954ZM79.703 282.172H83.5364C84.1434 282.172 84.6066 282.028 84.926 281.74C85.2615 281.453 85.4292 281.046 85.4292 280.519C85.4292 280.023 85.2615 279.64 84.926 279.369C84.6066 279.081 84.1434 278.937 83.5364 278.937H79.703V282.172ZM99.6585 274.145V272.085H101.743V284.064H99.6585V282.004C98.6363 283.585 97.1269 284.376 95.1303 284.376C93.4372 284.376 92.0076 283.769 90.8416 282.555C89.6597 281.325 89.0687 279.832 89.0687 278.075C89.0687 276.334 89.6597 274.848 90.8416 273.618C92.0236 272.388 93.4532 271.774 95.1303 271.774C97.1269 271.774 98.6363 272.564 99.6585 274.145ZM95.3938 282.363C96.6078 282.363 97.622 281.956 98.4366 281.141C99.2512 280.295 99.6585 279.273 99.6585 278.075C99.6585 276.861 99.2512 275.847 98.4366 275.032C97.622 274.201 96.6078 273.786 95.3938 273.786C94.1959 273.786 93.1896 274.201 92.375 275.032C91.5604 275.847 91.1531 276.861 91.1531 278.075C91.1531 279.273 91.5604 280.295 92.375 281.141C93.1896 281.956 94.1959 282.363 95.3938 282.363ZM114.652 272.085H116.88V284.064H114.844V275.367L111.035 281.501H110.771L106.962 275.367V284.064H104.901V272.085H107.129L110.891 278.147L114.652 272.085ZM122.123 280.495L128.76 272.085H130.437V284.064H128.376V275.655L121.74 284.064H120.063V272.085H122.123V280.495ZM145.23 284.376C143.425 284.376 141.923 283.777 140.725 282.579C139.527 281.365 138.929 279.864 138.929 278.075C138.929 276.286 139.527 274.792 140.725 273.594C141.923 272.38 143.425 271.774 145.23 271.774C146.412 271.774 147.474 272.061 148.416 272.636C149.359 273.195 150.061 273.954 150.525 274.912L148.776 275.918C148.472 275.28 148.001 274.768 147.362 274.385C146.739 274.002 146.028 273.81 145.23 273.81C144.032 273.81 143.025 274.217 142.211 275.032C141.412 275.863 141.013 276.877 141.013 278.075C141.013 279.257 141.412 280.263 142.211 281.094C143.025 281.908 144.032 282.315 145.23 282.315C146.028 282.315 146.747 282.132 147.386 281.764C148.025 281.381 148.512 280.87 148.847 280.231L150.62 281.261C150.093 282.22 149.351 282.978 148.392 283.537C147.434 284.096 146.38 284.376 145.23 284.376ZM156.919 277.883L162.837 284.064H160.249L154.786 278.386V284.064H152.702V272.085H154.786V277.38L159.961 272.085H162.645L156.919 277.883ZM173.786 282.555C172.572 283.769 171.079 284.376 169.306 284.376C167.533 284.376 166.039 283.769 164.825 282.555C163.611 281.341 163.004 279.848 163.004 278.075C163.004 276.302 163.611 274.808 164.825 273.594C166.039 272.38 167.533 271.774 169.306 271.774C171.079 271.774 172.572 272.38 173.786 273.594C175.016 274.824 175.631 276.318 175.631 278.075C175.631 279.832 175.016 281.325 173.786 282.555ZM169.306 282.339C170.504 282.339 171.51 281.932 172.324 281.118C173.139 280.303 173.546 279.289 173.546 278.075C173.546 276.861 173.139 275.847 172.324 275.032C171.51 274.217 170.504 273.81 169.306 273.81C168.124 273.81 167.125 274.217 166.311 275.032C165.496 275.847 165.089 276.861 165.089 278.075C165.089 279.289 165.496 280.303 166.311 281.118C167.125 281.932 168.124 282.339 169.306 282.339ZM184.701 271.774C186.378 271.774 187.807 272.388 188.989 273.618C190.171 274.848 190.762 276.334 190.762 278.075C190.762 279.832 190.171 281.325 188.989 282.555C187.823 283.769 186.394 284.376 184.701 284.376C182.72 284.376 181.211 283.585 180.172 282.004V288.856H178.088V272.085H180.172V274.145C181.211 272.564 182.72 271.774 184.701 271.774ZM184.437 282.363C185.635 282.363 186.641 281.956 187.456 281.141C188.271 280.295 188.678 279.273 188.678 278.075C188.678 276.861 188.271 275.847 187.456 275.032C186.641 274.201 185.635 273.786 184.437 273.786C183.223 273.786 182.209 274.201 181.394 275.032C180.58 275.847 180.172 276.861 180.172 278.075C180.172 279.273 180.58 280.295 181.394 281.141C182.209 281.956 183.223 282.363 184.437 282.363ZM203.36 282.555C202.146 283.769 200.653 284.376 198.88 284.376C197.107 284.376 195.613 283.769 194.4 282.555C193.186 281.341 192.579 279.848 192.579 278.075C192.579 276.302 193.186 274.808 194.4 273.594C195.613 272.38 197.107 271.774 198.88 271.774C200.653 271.774 202.146 272.38 203.36 273.594C204.59 274.824 205.205 276.318 205.205 278.075C205.205 279.832 204.59 281.325 203.36 282.555ZM198.88 282.339C200.078 282.339 201.084 281.932 201.899 281.118C202.713 280.303 203.121 279.289 203.121 278.075C203.121 276.861 202.713 275.847 201.899 275.032C201.084 274.217 200.078 273.81 198.88 273.81C197.698 273.81 196.7 274.217 195.885 275.032C195.07 275.847 194.663 276.861 194.663 278.075C194.663 279.289 195.07 280.303 195.885 281.118C196.7 281.932 197.698 282.339 198.88 282.339ZM219.282 284.376C217.477 284.376 215.976 283.777 214.778 282.579C213.58 281.365 212.981 279.864 212.981 278.075C212.981 276.286 213.58 274.792 214.778 273.594C215.976 272.38 217.477 271.774 219.282 271.774C220.464 271.774 221.527 272.061 222.469 272.636C223.411 273.195 224.114 273.954 224.577 274.912L222.828 275.918C222.525 275.28 222.054 274.768 221.415 274.385C220.792 274.002 220.081 273.81 219.282 273.81C218.084 273.81 217.078 274.217 216.264 275.032C215.465 275.863 215.066 276.877 215.066 278.075C215.066 279.257 215.465 280.263 216.264 281.094C217.078 281.908 218.084 282.315 219.282 282.315C220.081 282.315 220.8 282.132 221.439 281.764C222.078 281.381 222.565 280.87 222.9 280.231L224.673 281.261C224.146 282.22 223.403 282.978 222.445 283.537C221.487 284.096 220.432 284.376 219.282 284.376ZM234.733 277.907C235.963 278.418 236.578 279.345 236.578 280.686C236.578 281.708 236.242 282.531 235.571 283.154C234.901 283.761 233.958 284.064 232.744 284.064H226.755V272.085H232.265C233.447 272.085 234.366 272.38 235.02 272.971C235.691 273.562 236.027 274.353 236.027 275.343C236.027 276.493 235.595 277.348 234.733 277.907ZM232.169 273.954H228.791V277.092H232.169C233.383 277.092 233.99 276.557 233.99 275.487C233.99 274.465 233.383 273.954 232.169 273.954ZM228.791 282.172H232.625C233.231 282.172 233.695 282.028 234.014 281.74C234.35 281.453 234.517 281.046 234.517 280.519C234.517 280.023 234.35 279.64 234.014 279.369C233.695 279.081 233.231 278.937 232.625 278.937H228.791V282.172ZM242.217 272.085H247.32V284.064H245.26V279.752H243.511L240.157 284.064H237.617L241.115 279.632C240.205 279.408 239.47 278.961 238.911 278.29C238.368 277.62 238.096 276.837 238.096 275.942C238.096 274.84 238.487 273.922 239.27 273.187C240.053 272.452 241.035 272.085 242.217 272.085ZM242.289 277.883H245.26V274.026H242.289C241.682 274.026 241.171 274.209 240.756 274.577C240.356 274.928 240.157 275.391 240.157 275.966C240.157 276.525 240.356 276.989 240.756 277.356C241.171 277.707 241.682 277.883 242.289 277.883ZM260.183 277.883L265.214 284.064H262.77L258.29 278.386V284.064H256.23V278.386L251.749 284.064H249.33L254.337 277.883L249.569 272.085H251.989L256.23 277.38V272.085H258.29V277.38L262.531 272.085H264.975L260.183 277.883ZM271.863 281.477L275.313 272.085H277.541L272.654 284.807C272.142 286.165 271.424 287.195 270.497 287.898C269.571 288.617 268.517 288.936 267.335 288.856V286.916C268.788 287.027 269.866 286.229 270.569 284.52L270.761 284.088L265.562 272.085H267.766L271.863 281.477ZM278.01 272.085H288.265V274.098H284.192V284.064H282.107V274.098H278.01V272.085ZM295.254 284.376C293.449 284.376 291.947 283.777 290.749 282.579C289.551 281.365 288.952 279.864 288.952 278.075C288.952 276.286 289.551 274.792 290.749 273.594C291.947 272.38 293.449 271.774 295.254 271.774C296.436 271.774 297.498 272.061 298.44 272.636C299.383 273.195 300.085 273.954 300.549 274.912L298.8 275.918C298.496 275.28 298.025 274.768 297.386 274.385C296.763 274.002 296.052 273.81 295.254 273.81C294.056 273.81 293.049 274.217 292.235 275.032C291.436 275.863 291.037 276.877 291.037 278.075C291.037 279.257 291.436 280.263 292.235 281.094C293.049 281.908 294.056 282.315 295.254 282.315C296.052 282.315 296.771 282.132 297.41 281.764C298.049 281.381 298.536 280.87 298.871 280.231L300.644 281.261C300.117 282.22 299.375 282.978 298.416 283.537C297.458 284.096 296.404 284.376 295.254 284.376ZM306.326 272.085H311.429V284.064H309.369V279.752H307.62L304.265 284.064H301.726L305.224 279.632C304.313 279.408 303.579 278.961 303.02 278.29C302.477 277.62 302.205 276.837 302.205 275.942C302.205 274.84 302.596 273.922 303.379 273.187C304.162 272.452 305.144 272.085 306.326 272.085ZM306.398 277.883H309.369V274.026H306.398C305.791 274.026 305.28 274.209 304.864 274.577C304.465 274.928 304.265 275.391 304.265 275.966C304.265 276.525 304.465 276.989 304.864 277.356C305.28 277.707 305.791 277.883 306.398 277.883Z" fill="black"/>
<path opacity="0.8" d="M272.834 62.8271C274.502 45.5725 289.89 32.9275 307.21 34.5895C324.53 36.2516 337.214 51.5904 335.547 68.845C333.88 86.0996 318.492 98.7445 301.172 97.0825C283.852 95.4205 271.167 80.0817 272.834 62.8271Z" fill="url(#paint0_linear_68_15251)" fill-opacity="0.4" stroke="url(#paint1_linear_68_15251)" stroke-width="1.49743"/>
<path opacity="0.8" d="M124.472 18.7927C125.385 9.34509 133.811 2.41957 143.297 3.32986C152.783 4.24014 159.729 12.6407 158.816 22.0883C157.903 31.5358 149.477 38.4613 139.991 37.5511C130.505 36.6408 123.559 28.2402 124.472 18.7927Z" fill="url(#paint2_linear_68_15251)" fill-opacity="0.4" stroke="url(#paint3_linear_68_15251)" stroke-width="1.49743"/>
<path opacity="0.8" d="M305.109 193.735C305.545 189.218 309.574 185.905 314.113 186.34C318.651 186.776 321.972 190.794 321.535 195.311C321.099 199.828 317.07 203.141 312.531 202.706C307.993 202.27 304.672 198.252 305.109 193.735Z" fill="url(#paint4_linear_68_15251)" fill-opacity="0.4" stroke="url(#paint5_linear_68_15251)" stroke-width="1.49743"/>
<path opacity="0.8" d="M19.89 74.9025C20.2073 71.6184 23.137 69.2082 26.4385 69.525C29.74 69.8418 32.1545 72.7648 31.8372 76.0489C31.5199 79.3331 28.5901 81.7432 25.2886 81.4264C21.9871 81.1096 19.5726 78.1866 19.89 74.9025Z" fill="url(#paint6_linear_68_15251)" fill-opacity="0.4" stroke="url(#paint7_linear_68_15251)" stroke-width="1.49743"/>
<path opacity="0.8" d="M93.6087 92.0844C94.0452 87.5676 98.0742 84.2544 102.613 84.6899C107.151 85.1254 110.472 89.1439 110.035 93.6607C109.599 98.1775 105.57 101.491 101.031 101.055C96.493 100.62 93.1723 96.6012 93.6087 92.0844Z" fill="url(#paint8_linear_68_15251)" fill-opacity="0.4" stroke="url(#paint9_linear_68_15251)" stroke-width="1.49743"/>
<path opacity="0.8" d="M21.5439 151.81C22.7743 139.075 34.1319 129.741 46.9164 130.968C59.701 132.195 69.0628 143.517 67.8323 156.252C66.6019 168.986 55.2444 178.32 42.4598 177.093C29.6753 175.866 20.3135 164.544 21.5439 151.81Z" fill="url(#paint10_linear_68_15251)" fill-opacity="0.4" stroke="url(#paint11_linear_68_15251)" stroke-width="1.49743"/>
<path opacity="0.8" d="M262.89 37.5314C263.207 34.2473 266.137 31.8371 269.439 32.1539C272.74 32.4707 275.155 35.3937 274.837 38.6779C274.52 41.962 271.59 44.3721 268.289 44.0553C264.987 43.7385 262.573 40.8155 262.89 37.5314Z" fill="url(#paint12_linear_68_15251)" fill-opacity="0.4" stroke="url(#paint13_linear_68_15251)" stroke-width="1.49743"/>
<defs>
<linearGradient id="paint0_linear_68_15251" x1="290.736" y1="93.3188" x2="317.912" y2="38.5385" gradientUnits="userSpaceOnUse">
<stop stop-color="#76B8E6"/>
<stop offset="0.505208" stop-color="#77C6FE"/>
<stop offset="0.963542" stop-color="#A6E1FF"/>
</linearGradient>
<linearGradient id="paint1_linear_68_15251" x1="301.1" y1="97.8278" x2="307.24" y2="33.8403" gradientUnits="userSpaceOnUse">
<stop stop-color="#DDF1FF"/>
<stop offset="1" stop-color="#0063A9" stop-opacity="0"/>
<stop offset="1" stop-color="#A3D4F7" stop-opacity="0"/>
</linearGradient>
<linearGradient id="paint2_linear_68_15251" x1="134.134" y1="35.7797" x2="149.302" y2="5.20461" gradientUnits="userSpaceOnUse">
<stop stop-color="#76B8E6"/>
<stop offset="0.505208" stop-color="#77C6FE"/>
<stop offset="0.963542" stop-color="#A6E1FF"/>
</linearGradient>
<linearGradient id="paint3_linear_68_15251" x1="139.919" y1="38.2963" x2="143.346" y2="2.58237" gradientUnits="userSpaceOnUse">
<stop stop-color="#E9F6FF"/>
<stop offset="1" stop-color="#0063A9" stop-opacity="0"/>
<stop offset="1" stop-color="#6792B0" stop-opacity="0"/>
</linearGradient>
<linearGradient id="paint4_linear_68_15251" x1="309.567" y1="202.193" x2="317.151" y2="186.905" gradientUnits="userSpaceOnUse">
<stop stop-color="#76B8E6"/>
<stop offset="0.505208" stop-color="#77C6FE"/>
<stop offset="0.963542" stop-color="#A6E1FF"/>
</linearGradient>
<linearGradient id="paint5_linear_68_15251" x1="312.459" y1="203.451" x2="314.173" y2="185.594" gradientUnits="userSpaceOnUse">
<stop stop-color="#E9F6FF"/>
<stop offset="1" stop-color="#0063A9" stop-opacity="0"/>
<stop offset="1" stop-color="#6792B0" stop-opacity="0"/>
</linearGradient>
<linearGradient id="paint6_linear_68_15251" x1="23.0474" y1="81.2279" x2="28.7354" y2="69.7623" gradientUnits="userSpaceOnUse">
<stop stop-color="#76B8E6"/>
<stop offset="0.505208" stop-color="#77C6FE"/>
<stop offset="0.963542" stop-color="#A6E1FF"/>
</linearGradient>
<linearGradient id="paint7_linear_68_15251" x1="25.2166" y1="82.1717" x2="26.5018" y2="68.7789" gradientUnits="userSpaceOnUse">
<stop stop-color="#E9F6FF"/>
<stop offset="1" stop-color="#0063A9" stop-opacity="0"/>
<stop offset="1" stop-color="#6792B0" stop-opacity="0"/>
</linearGradient>
<linearGradient id="paint8_linear_68_15251" x1="98.0671" y1="100.542" x2="105.651" y2="85.2546" gradientUnits="userSpaceOnUse">
<stop stop-color="#76B8E6"/>
<stop offset="0.505208" stop-color="#77C6FE"/>
<stop offset="0.963542" stop-color="#A6E1FF"/>
</linearGradient>
<linearGradient id="paint9_linear_68_15251" x1="100.959" y1="101.8" x2="102.673" y2="83.9435" gradientUnits="userSpaceOnUse">
<stop stop-color="#E9F6FF"/>
<stop offset="1" stop-color="#0063A9" stop-opacity="0"/>
<stop offset="1" stop-color="#6792B0" stop-opacity="0"/>
</linearGradient>
<linearGradient id="paint10_linear_68_15251" x1="34.675" y1="174.483" x2="54.8992" y2="133.716" gradientUnits="userSpaceOnUse">
<stop stop-color="#76B8E6"/>
<stop offset="0.505208" stop-color="#77C6FE"/>
<stop offset="0.963542" stop-color="#A6E1FF"/>
</linearGradient>
<linearGradient id="paint11_linear_68_15251" x1="42.3878" y1="177.838" x2="46.9573" y2="130.22" gradientUnits="userSpaceOnUse">
<stop stop-color="#E9F6FF"/>
<stop offset="1" stop-color="#0063A9" stop-opacity="0"/>
<stop offset="1" stop-color="#6792B0" stop-opacity="0"/>
</linearGradient>
<linearGradient id="paint12_linear_68_15251" x1="266.047" y1="43.8568" x2="271.735" y2="32.3912" gradientUnits="userSpaceOnUse">
<stop stop-color="#76B8E6"/>
<stop offset="0.505208" stop-color="#77C6FE"/>
<stop offset="0.963542" stop-color="#A6E1FF"/>
</linearGradient>
<linearGradient id="paint13_linear_68_15251" x1="268.217" y1="44.8006" x2="269.502" y2="31.4078" gradientUnits="userSpaceOnUse">
<stop stop-color="#E9F6FF"/>
<stop offset="1" stop-color="#0063A9" stop-opacity="0"/>
<stop offset="1" stop-color="#6792B0" stop-opacity="0"/>
</linearGradient>
</defs>
</svg>
