<svg width="150" height="150" viewBox="0 0 150 150" fill="none" xmlns="http://www.w3.org/2000/svg">
<path fill-rule="evenodd" clip-rule="evenodd" d="M6.25 17.2468C6.25 14.6252 8.41685 12.5 11.0898 12.5H15.8292C24.7788 12.5 32.328 19.0362 33.4381 27.7462L34.7215 37.8165H126.205C133.109 37.8165 138.397 43.8388 137.373 50.5354L130.453 95.7781C129.15 104.298 121.688 110.601 112.904 110.601H51.2432C42.459 110.601 34.9966 104.298 33.6936 95.7781L25.6627 43.2674L25.6466 43.1521L23.8332 28.9238C23.3286 24.9647 19.8972 21.9937 15.8292 21.9937H11.0898C8.41685 21.9937 6.25 19.8684 6.25 17.2468ZM36.0689 47.3101L43.2661 94.3698C43.8584 98.2426 47.2504 101.108 51.2432 101.108H112.904C116.897 101.108 120.289 98.2426 120.881 94.3698L127.8 49.1271C127.947 48.1705 127.191 47.3101 126.205 47.3101H36.0689Z" fill="#CECECE"/>
<path d="M120.792 131.171C120.792 134.666 117.903 137.5 114.339 137.5C110.775 137.5 107.886 134.666 107.886 131.171C107.886 127.675 110.775 124.842 114.339 124.842C117.903 124.842 120.792 127.675 120.792 131.171Z" fill="#CECECE"/>
<path d="M56.2613 131.171C56.2613 134.666 53.3721 137.5 49.8082 137.5C46.2443 137.5 43.3551 134.666 43.3551 131.171C43.3551 127.675 46.2443 124.842 49.8082 124.842C53.3721 124.842 56.2613 127.675 56.2613 131.171Z" fill="#CECECE"/>
</svg>
