<svg width="125" height="29" viewBox="0 0 125 29" fill="none" xmlns="http://www.w3.org/2000/svg">
<rect width="125" height="29" rx="14.5" fill="white"/>
<path d="M48.914 19H47.052L44.28 9.2H45.974L48.032 16.858L50.258 9.2H51.742L53.954 16.858L56.012 9.2H57.706L54.934 19H53.072L51 11.846L48.914 19ZM62.2769 11.818C63.0889 11.818 63.7376 12.0793 64.2229 12.602C64.7176 13.1153 64.9649 13.8153 64.9649 14.702V19H63.4529V14.856C63.4529 14.3333 63.3129 13.932 63.0329 13.652C62.7529 13.372 62.3702 13.232 61.8849 13.232C61.3342 13.232 60.9002 13.4047 60.5829 13.75C60.2656 14.086 60.1069 14.5853 60.1069 15.248V19H58.5949V9.2H60.1069V12.896C60.5736 12.1773 61.2969 11.818 62.2769 11.818ZM72.1369 12.994V12H73.6489V19H72.1369V17.992C71.5676 18.7853 70.7509 19.182 69.6869 19.182C68.7256 19.182 67.9043 18.8273 67.2229 18.118C66.5416 17.4087 66.2009 16.536 66.2009 15.5C66.2009 14.464 66.5416 13.5913 67.2229 12.882C67.9043 12.1727 68.7256 11.818 69.6869 11.818C70.7509 11.818 71.5676 12.21 72.1369 12.994ZM68.3429 17.11C68.7629 17.53 69.2903 17.74 69.9249 17.74C70.5596 17.74 71.0869 17.53 71.5069 17.11C71.9269 16.6807 72.1369 16.144 72.1369 15.5C72.1369 14.856 71.9269 14.324 71.5069 13.904C71.0869 13.4747 70.5596 13.26 69.9249 13.26C69.2903 13.26 68.7629 13.4747 68.3429 13.904C67.9229 14.324 67.7129 14.856 67.7129 15.5C67.7129 16.1347 67.9229 16.6713 68.3429 17.11ZM79.3173 12V13.456H77.5813V16.816C77.5813 17.1053 77.6466 17.3153 77.7773 17.446C77.908 17.5673 78.0993 17.6373 78.3513 17.656C78.6126 17.6653 78.9346 17.6607 79.3173 17.642V19C78.16 19.14 77.3293 19.042 76.8253 18.706C76.3213 18.3607 76.0693 17.7307 76.0693 16.816V13.456H74.7813V12H76.0693V10.488L77.5813 10.04V12H79.3173ZM81.7869 13.932C81.7869 14.1467 81.8989 14.324 82.1229 14.464C82.3469 14.5947 82.6735 14.7207 83.1029 14.842C83.4295 14.9167 83.7142 14.996 83.9569 15.08C84.1995 15.164 84.4562 15.29 84.7269 15.458C84.9975 15.6167 85.2029 15.8313 85.3429 16.102C85.4922 16.3633 85.5622 16.6713 85.5529 17.026C85.5529 17.698 85.2915 18.2253 84.7689 18.608C84.2462 18.9907 83.5975 19.182 82.8229 19.182C82.1322 19.182 81.5395 19.0373 81.0449 18.748C80.5502 18.4587 80.1909 18.0573 79.9669 17.544L81.2689 16.788C81.5022 17.46 82.0202 17.796 82.8229 17.796C83.6162 17.796 84.0129 17.5347 84.0129 17.012C84.0129 16.6293 83.5695 16.3307 82.6829 16.116C82.3469 16.032 82.0622 15.948 81.8289 15.864C81.6049 15.78 81.3529 15.6587 81.0729 15.5C80.8022 15.3413 80.5922 15.1313 80.4429 14.87C80.3029 14.6087 80.2375 14.3053 80.2469 13.96C80.2469 13.316 80.4895 12.798 80.9749 12.406C81.4695 12.014 82.0809 11.818 82.8089 11.818C83.3875 11.818 83.9009 11.9487 84.3489 12.21C84.8062 12.462 85.1562 12.8167 85.3989 13.274L84.1249 13.988C83.8915 13.456 83.4529 13.19 82.8089 13.19C82.5102 13.19 82.2629 13.2553 82.0669 13.386C81.8802 13.5167 81.7869 13.6987 81.7869 13.932ZM95.1 19H93.364L92.678 17.026H88.506L87.82 19H86.07L89.626 9.2H91.558L95.1 19ZM90.592 11.09L89.038 15.514H92.146L90.592 11.09ZM100.018 11.818C100.97 11.818 101.791 12.1773 102.482 12.896C103.163 13.6053 103.504 14.4733 103.504 15.5C103.504 16.536 103.163 17.4087 102.482 18.118C101.8 18.8273 100.979 19.182 100.018 19.182C98.9632 19.182 98.1465 18.79 97.5678 18.006V21.8H96.0558V12H97.5678V13.008C98.1372 12.2147 98.9538 11.818 100.018 11.818ZM98.1978 17.11C98.6178 17.53 99.1452 17.74 99.7798 17.74C100.414 17.74 100.942 17.53 101.362 17.11C101.782 16.6807 101.992 16.144 101.992 15.5C101.992 14.856 101.782 14.324 101.362 13.904C100.942 13.4747 100.414 13.26 99.7798 13.26C99.1452 13.26 98.6178 13.4747 98.1978 13.904C97.7778 14.324 97.5678 14.856 97.5678 15.5C97.5678 16.1347 97.7778 16.6713 98.1978 17.11ZM108.836 11.818C109.788 11.818 110.61 12.1773 111.3 12.896C111.982 13.6053 112.322 14.4733 112.322 15.5C112.322 16.536 111.982 17.4087 111.3 18.118C110.619 18.8273 109.798 19.182 108.836 19.182C107.782 19.182 106.965 18.79 106.386 18.006V21.8H104.874V12H106.386V13.008C106.956 12.2147 107.772 11.818 108.836 11.818ZM107.016 17.11C107.436 17.53 107.964 17.74 108.598 17.74C109.233 17.74 109.76 17.53 110.18 17.11C110.6 16.6807 110.81 16.144 110.81 15.5C110.81 14.856 110.6 14.324 110.18 13.904C109.76 13.4747 109.233 13.26 108.598 13.26C107.964 13.26 107.436 13.4747 107.016 13.904C106.596 14.324 106.386 14.856 106.386 15.5C106.386 16.1347 106.596 16.6713 107.016 17.11Z" fill="#2CB742"/>
<g clip-path="url(#clip0_29_397)">
<path d="M14 23L15.462 18.6143C14.7202 17.3666 14.2931 15.9104 14.2931 14.3534C14.2931 9.74 18.0331 6 22.6466 6C27.26 6 31 9.74 31 14.3534C31 18.9669 27.26 22.7069 22.6466 22.7069C21.2429 22.7069 19.921 22.359 18.76 21.7476L14 23Z" fill="#2CB742"/>
<path d="M27.976 17.1336C27.5903 16.4046 26.1679 15.571 26.1679 15.571C25.8461 15.3876 25.4577 15.367 25.2742 15.6941C25.2742 15.6941 24.812 16.2484 24.6945 16.3281C24.1575 16.6919 23.6601 16.6778 23.158 16.1757L21.9912 15.0089L20.8243 13.842C20.3222 13.3399 20.3082 12.8425 20.6719 12.3056C20.7516 12.188 21.3059 11.7258 21.3059 11.7258C21.633 11.542 21.6125 11.154 21.429 10.8321C21.429 10.8321 20.5954 9.40971 19.8665 9.02398C19.5564 8.85985 19.1756 8.91729 18.9276 9.16526L18.4124 9.68054C16.7777 11.3152 17.5826 13.1606 19.2172 14.7952L20.7112 16.2891L22.2051 17.7831C23.8398 19.4177 25.6851 20.2226 27.3198 18.5879L27.8351 18.0727C28.083 17.8241 28.1402 17.4434 27.976 17.1336Z" fill="white"/>
</g>
<defs>
<clipPath id="clip0_29_397">
<rect width="17" height="17" fill="white" transform="translate(14 6)"/>
</clipPath>
</defs>
</svg>
